<?xml version="1.0" encoding="UTF-8"?>
<!-- Generator: visioncortex VTracer 0.6.3 -->
<svg version="1.1" xmlns="http://www.w3.org/2000/svg" width="1280" height="1280">
<path d="M0 0 C0.95 -0.02 1.89 -0.04 2.87 -0.06 C9.26 -0.06 13.56 1.14 19 4.44 C20.18 5.04 21.35 5.63 22.56 6.25 C31.78 11.65 38.28 21.21 41 31.44 C41.36 34.89 41.33 38.29 41.25 41.75 C41.24 43.09 41.24 43.09 41.23 44.46 C41.16 50.97 41.16 50.97 40 54.44 C39.34 54.44 38.68 54.44 38 54.44 C38.06 55.16 38.12 55.88 38.19 56.62 C37.96 60 37 61.74 35 64.44 C34.34 64.44 33.68 64.44 33 64.44 C33 65.43 33 66.42 33 67.44 C32.34 67.44 31.68 67.44 31 67.44 C30.74 68.02 30.48 68.61 30.21 69.21 C28.92 71.59 27.53 73.15 25.62 75.06 C24.56 76.12 24.56 76.12 23.49 77.2 C22.71 77.97 21.93 78.74 21.13 79.54 C19.89 80.78 19.89 80.78 18.63 82.04 C16.32 84.35 14.01 86.65 11.7 88.95 C9.19 91.44 6.69 93.95 4.18 96.45 C-0.21 100.84 -4.61 105.22 -9.01 109.61 C-15.55 116.12 -22.09 122.65 -28.63 129.17 C-38.95 139.47 -49.27 149.77 -59.59 160.06 C-75.98 176.4 -92.35 192.75 -108.72 209.1 C-115.02 215.38 -121.32 221.67 -127.61 227.96 C-128.31 228.66 -129.01 229.35 -129.73 230.07 C-146.39 246.7 -163.04 263.33 -179.7 279.96 C-180.43 280.69 -181.16 281.42 -181.91 282.17 C-198.93 299.15 -215.94 316.13 -232.97 333.11 C-233.7 333.84 -234.43 334.57 -235.19 335.32 C-241.09 341.21 -246.99 347.1 -252.9 352.99 C-277.22 377.24 -301.53 401.5 -325.82 425.78 C-329.25 429.2 -332.68 432.63 -336.11 436.05 C-337.12 437.07 -337.12 437.07 -338.15 438.1 C-349.03 448.96 -359.92 459.82 -370.82 470.67 C-381.76 481.57 -392.69 492.48 -403.6 503.4 C-410.1 509.89 -416.6 516.38 -423.11 522.85 C-427.46 527.17 -431.79 531.5 -436.11 535.84 C-438.58 538.31 -441.06 540.78 -443.54 543.24 C-446.21 545.89 -448.86 548.55 -451.51 551.21 C-452.29 551.98 -453.08 552.75 -453.89 553.54 C-454.58 554.25 -455.28 554.96 -456 555.69 C-456.91 556.6 -456.91 556.6 -457.84 557.53 C-459.24 559.43 -459.24 559.43 -458.84 561.99 C-457.57 565.7 -454.94 568.04 -452.19 570.73 C-451.58 571.35 -450.97 571.96 -450.34 572.6 C-448.28 574.67 -446.21 576.72 -444.14 578.77 C-442.66 580.25 -441.18 581.73 -439.71 583.21 C-435.69 587.23 -431.67 591.23 -427.64 595.24 C-423.42 599.43 -419.22 603.64 -415.02 607.84 C-407.95 614.9 -400.87 621.95 -393.79 629 C-384.72 638.04 -375.65 647.09 -366.59 656.14 C-358.79 663.93 -350.99 671.71 -343.19 679.5 C-341.51 681.16 -339.84 682.83 -338.17 684.5 C-333.39 689.27 -328.62 694.03 -323.84 698.78 C-322.39 700.22 -320.95 701.66 -319.5 703.11 C-317.53 705.08 -315.55 707.05 -313.57 709.02 C-313 709.58 -312.43 710.15 -311.85 710.73 C-308.53 714.03 -305.09 717.14 -301.5 720.14 C-299.6 721.78 -297.98 723.57 -296.38 725.5 C-293.71 728.63 -290.95 731.57 -288 734.44 C-238 784.44 -238 784.44 -235.38 787.12 C-233.03 789.55 -233.03 789.55 -230 791.44 C-230 792.1 -230 792.76 -230 793.44 C-229.01 793.77 -228.02 794.1 -227 794.44 C-227 795.1 -227 795.76 -227 796.44 C-226.34 796.44 -225.68 796.44 -225 796.44 C-225 797.1 -225 797.76 -225 798.44 C-224.01 798.77 -223.02 799.1 -222 799.44 C-222 800.1 -222 800.76 -222 801.44 C-221.34 801.44 -220.68 801.44 -220 801.44 C-220 802.1 -220 802.76 -220 803.44 C-219.01 803.77 -218.02 804.1 -217 804.44 C-217 805.1 -217 805.76 -217 806.44 C-216.34 806.44 -215.68 806.44 -215 806.44 C-215 807.1 -215 807.76 -215 808.44 C-214.01 808.77 -213.02 809.1 -212 809.44 C-212 810.1 -212 810.76 -212 811.44 C-211.34 811.44 -210.68 811.44 -210 811.44 C-210 812.1 -210 812.76 -210 813.44 C-209.01 813.77 -208.02 814.1 -207 814.44 C-207 815.1 -207 815.76 -207 816.44 C-206.34 816.44 -205.68 816.44 -205 816.44 C-205 817.1 -205 817.76 -205 818.44 C-204.01 818.77 -203.02 819.1 -202 819.44 C-202 820.1 -202 820.76 -202 821.44 C-201.34 821.44 -200.68 821.44 -200 821.44 C-200 822.1 -200 822.76 -200 823.44 C-199.01 823.77 -198.02 824.1 -197 824.44 C-197 825.1 -197 825.76 -197 826.44 C-196.34 826.44 -195.68 826.44 -195 826.44 C-195 827.1 -195 827.76 -195 828.44 C-194.01 828.77 -193.02 829.1 -192 829.44 C-192 830.1 -192 830.76 -192 831.44 C-191.34 831.44 -190.68 831.44 -190 831.44 C-190 832.1 -190 832.76 -190 833.44 C-189.01 833.77 -188.02 834.1 -187 834.44 C-187 835.1 -187 835.76 -187 836.44 C-186.34 836.44 -185.68 836.44 -185 836.44 C-185 837.1 -185 837.76 -185 838.44 C-184.01 838.77 -183.02 839.1 -182 839.44 C-182 840.1 -182 840.76 -182 841.44 C-181.34 841.44 -180.68 841.44 -180 841.44 C-180 842.1 -180 842.76 -180 843.44 C-179.01 843.77 -178.02 844.1 -177 844.44 C-177 845.1 -177 845.76 -177 846.44 C-176.34 846.44 -175.68 846.44 -175 846.44 C-175 847.1 -175 847.76 -175 848.44 C-174.01 848.77 -173.02 849.1 -172 849.44 C-172 850.1 -172 850.76 -172 851.44 C-171.34 851.44 -170.68 851.44 -170 851.44 C-170 852.1 -170 852.76 -170 853.44 C-169.01 853.77 -168.02 854.1 -167 854.44 C-167 855.1 -167 855.76 -167 856.44 C-166.34 856.44 -165.68 856.44 -165 856.44 C-165 857.1 -165 857.76 -165 858.44 C-164.01 858.77 -163.02 859.1 -162 859.44 C-162 860.1 -162 860.76 -162 861.44 C-161.34 861.44 -160.68 861.44 -160 861.44 C-160 862.1 -160 862.76 -160 863.44 C-159.01 863.77 -158.02 864.1 -157 864.44 C-157 865.1 -157 865.76 -157 866.44 C-156.34 866.44 -155.68 866.44 -155 866.44 C-155 867.1 -155 867.76 -155 868.44 C-154.01 868.77 -153.02 869.1 -152 869.44 C-152 870.1 -152 870.76 -152 871.44 C-151.34 871.44 -150.68 871.44 -150 871.44 C-150 872.1 -150 872.76 -150 873.44 C-149.01 873.77 -148.02 874.1 -147 874.44 C-147 875.1 -147 875.76 -147 876.44 C-146.34 876.44 -145.68 876.44 -145 876.44 C-145 877.1 -145 877.76 -145 878.44 C-144.01 878.77 -143.02 879.1 -142 879.44 C-142 880.1 -142 880.76 -142 881.44 C-141.34 881.44 -140.68 881.44 -140 881.44 C-140 882.1 -140 882.76 -140 883.44 C-139.01 883.77 -138.02 884.1 -137 884.44 C-137 885.1 -137 885.76 -137 886.44 C-136.34 886.44 -135.68 886.44 -135 886.44 C-135 887.1 -135 887.76 -135 888.44 C-134.01 888.77 -133.02 889.1 -132 889.44 C-132 890.1 -132 890.76 -132 891.44 C-131.34 891.44 -130.68 891.44 -130 891.44 C-130 892.1 -130 892.76 -130 893.44 C-129.01 893.77 -128.02 894.1 -127 894.44 C-127 895.1 -127 895.76 -127 896.44 C-126.34 896.44 -125.68 896.44 -125 896.44 C-125 897.1 -125 897.76 -125 898.44 C-124.01 898.77 -123.02 899.1 -122 899.44 C-122 900.1 -122 900.76 -122 901.44 C-121.34 901.44 -120.68 901.44 -120 901.44 C-120 902.1 -120 902.76 -120 903.44 C-119.01 903.77 -118.02 904.1 -117 904.44 C-117 905.1 -117 905.76 -117 906.44 C-116.34 906.44 -115.68 906.44 -115 906.44 C-115 907.1 -115 907.76 -115 908.44 C-114.01 908.77 -113.02 909.1 -112 909.44 C-112 910.1 -112 910.76 -112 911.44 C-111.34 911.44 -110.68 911.44 -110 911.44 C-110 912.1 -110 912.76 -110 913.44 C-109.01 913.77 -108.02 914.1 -107 914.44 C-107 915.1 -107 915.76 -107 916.44 C-106.34 916.44 -105.68 916.44 -105 916.44 C-105 917.1 -105 917.76 -105 918.44 C-104.01 918.77 -103.02 919.1 -102 919.44 C-102 920.1 -102 920.76 -102 921.44 C-101.34 921.44 -100.68 921.44 -100 921.44 C-100 922.1 -100 922.76 -100 923.44 C-99.01 923.77 -98.02 924.1 -97 924.44 C-97 925.1 -97 925.76 -97 926.44 C-96.34 926.44 -95.68 926.44 -95 926.44 C-95 927.1 -95 927.76 -95 928.44 C-94.01 928.77 -93.02 929.1 -92 929.44 C-92 930.1 -92 930.76 -92 931.44 C-91.34 931.44 -90.68 931.44 -90 931.44 C-90 932.1 -90 932.76 -90 933.44 C-89.01 933.77 -88.02 934.1 -87 934.44 C-87 935.1 -87 935.76 -87 936.44 C-86.34 936.44 -85.68 936.44 -85 936.44 C-85 937.1 -85 937.76 -85 938.44 C-84.01 938.77 -83.02 939.1 -82 939.44 C-82 940.1 -82 940.76 -82 941.44 C-81.34 941.44 -80.68 941.44 -80 941.44 C-80 942.1 -80 942.76 -80 943.44 C-79.01 943.77 -78.02 944.1 -77 944.44 C-77 945.1 -77 945.76 -77 946.44 C-76.34 946.44 -75.68 946.44 -75 946.44 C-75 947.1 -75 947.76 -75 948.44 C-74.01 948.77 -73.02 949.1 -72 949.44 C-72 950.1 -72 950.76 -72 951.44 C-71.34 951.44 -70.68 951.44 -70 951.44 C-70 952.1 -70 952.76 -70 953.44 C-69.01 953.77 -68.02 954.1 -67 954.44 C-67 955.1 -67 955.76 -67 956.44 C-66.34 956.44 -65.68 956.44 -65 956.44 C-65 957.1 -65 957.76 -65 958.44 C-64.01 958.77 -63.02 959.1 -62 959.44 C-62 960.1 -62 960.76 -62 961.44 C-61.34 961.44 -60.68 961.44 -60 961.44 C-60 962.1 -60 962.76 -60 963.44 C-59.01 963.77 -58.02 964.1 -57 964.44 C-57 965.1 -57 965.76 -57 966.44 C-56.34 966.44 -55.68 966.44 -55 966.44 C-55 967.1 -55 967.76 -55 968.44 C-54.01 968.77 -53.02 969.1 -52 969.44 C-52 970.1 -52 970.76 -52 971.44 C-51.34 971.44 -50.68 971.44 -50 971.44 C-50 972.1 -50 972.76 -50 973.44 C-49.01 973.77 -48.02 974.1 -47 974.44 C-47 975.1 -47 975.76 -47 976.44 C-46.34 976.44 -45.68 976.44 -45 976.44 C-45 977.1 -45 977.76 -45 978.44 C-44.01 978.77 -43.02 979.1 -42 979.44 C-42 980.1 -42 980.76 -42 981.44 C-41.34 981.44 -40.68 981.44 -40 981.44 C-40 982.1 -40 982.76 -40 983.44 C-39.01 983.77 -38.02 984.1 -37 984.44 C-37 985.1 -37 985.76 -37 986.44 C-36.34 986.44 -35.68 986.44 -35 986.44 C-35 987.1 -35 987.76 -35 988.44 C-34.01 988.77 -33.02 989.1 -32 989.44 C-32 990.1 -32 990.76 -32 991.44 C-31.34 991.44 -30.68 991.44 -30 991.44 C-30 992.1 -30 992.76 -30 993.44 C-29.01 993.77 -28.02 994.1 -27 994.44 C-27 995.1 -27 995.76 -27 996.44 C-26.34 996.44 -25.68 996.44 -25 996.44 C-25 997.1 -25 997.76 -25 998.44 C-24.01 998.77 -23.02 999.1 -22 999.44 C-22 1000.1 -22 1000.76 -22 1001.44 C-21.34 1001.44 -20.68 1001.44 -20 1001.44 C-20 1002.1 -20 1002.76 -20 1003.44 C-19.01 1003.77 -18.02 1004.1 -17 1004.44 C-17 1005.1 -17 1005.76 -17 1006.44 C-16.34 1006.44 -15.68 1006.44 -15 1006.44 C-15 1007.1 -15 1007.76 -15 1008.44 C-14.01 1008.77 -13.02 1009.1 -12 1009.44 C-12 1010.1 -12 1010.76 -12 1011.44 C-11.34 1011.44 -10.68 1011.44 -10 1011.44 C-10 1012.1 -10 1012.76 -10 1013.44 C-9.01 1013.77 -8.02 1014.1 -7 1014.44 C-7 1015.1 -7 1015.76 -7 1016.44 C-6.34 1016.44 -5.68 1016.44 -5 1016.44 C-5 1017.1 -5 1017.76 -5 1018.44 C-4.01 1018.77 -3.02 1019.1 -2 1019.44 C-2 1020.1 -2 1020.76 -2 1021.44 C-1.34 1021.44 -0.68 1021.44 0 1021.44 C0 1022.1 0 1022.76 0 1023.44 C0.99 1023.77 1.98 1024.1 3 1024.44 C3 1025.1 3 1025.76 3 1026.44 C3.66 1026.44 4.32 1026.44 5 1026.44 C5 1027.1 5 1027.76 5 1028.44 C5.99 1028.77 6.98 1029.1 8 1029.44 C8 1030.1 8 1030.76 8 1031.44 C8.66 1031.44 9.32 1031.44 10 1031.44 C10 1032.1 10 1032.76 10 1033.44 C10.99 1033.77 11.98 1034.1 13 1034.44 C13 1035.1 13 1035.76 13 1036.44 C13.66 1036.44 14.32 1036.44 15 1036.44 C15 1037.1 15 1037.76 15 1038.44 C15.99 1038.77 16.98 1039.1 18 1039.44 C18 1040.1 18 1040.76 18 1041.44 C18.66 1041.44 19.32 1041.44 20 1041.44 C20 1042.1 20 1042.76 20 1043.44 C20.99 1043.77 21.98 1044.1 23 1044.44 C23 1045.1 23 1045.76 23 1046.44 C23.66 1046.44 24.32 1046.44 25 1046.44 C25 1047.1 25 1047.76 25 1048.44 C25.99 1048.77 26.98 1049.1 28 1049.44 C28 1050.1 28 1050.76 28 1051.44 C28.66 1051.44 29.32 1051.44 30 1051.44 C31.84 1053.56 31.84 1053.56 33.94 1056.44 C34.63 1057.37 35.32 1058.29 36.03 1059.25 C40.56 1066.58 41.5 1072.87 41.44 1081.44 C41.47 1082.86 41.47 1082.86 41.5 1084.3 C41.49 1090.7 40.3 1094.99 37 1100.44 C36.4 1101.61 35.8 1102.79 35.19 1104 C29.79 1113.22 20.23 1119.72 10 1122.44 C6.55 1122.79 3.15 1122.77 -0.31 1122.69 C-1.65 1122.68 -1.65 1122.68 -3.02 1122.67 C-9.53 1122.59 -9.53 1122.59 -13 1121.44 C-13 1120.78 -13 1120.12 -13 1119.44 C-13.72 1119.5 -14.44 1119.56 -15.19 1119.62 C-18.56 1119.4 -20.31 1118.44 -23 1116.44 C-23 1115.78 -23 1115.12 -23 1114.44 C-23.99 1114.44 -24.98 1114.44 -26 1114.44 C-26 1113.78 -26 1113.12 -26 1112.44 C-26.59 1112.18 -27.17 1111.92 -27.77 1111.65 C-30.15 1110.36 -31.71 1108.97 -33.62 1107.06 C-34.33 1106.35 -35.03 1105.65 -35.76 1104.92 C-36.53 1104.15 -37.31 1103.37 -38.1 1102.57 C-38.93 1101.74 -39.75 1100.91 -40.61 1100.06 C-42.91 1097.76 -45.21 1095.45 -47.51 1093.14 C-50.01 1090.63 -52.51 1088.12 -55.01 1085.62 C-59.4 1081.22 -63.79 1076.83 -68.17 1072.43 C-74.69 1065.88 -81.21 1059.35 -87.73 1052.81 C-98.03 1042.49 -108.33 1032.17 -118.63 1021.85 C-134.96 1005.46 -151.31 989.09 -167.66 972.71 C-173.95 966.42 -180.23 960.12 -186.52 953.83 C-187.57 952.78 -187.57 952.78 -188.64 951.71 C-205.27 935.05 -221.9 918.39 -238.52 901.74 C-239.25 901.01 -239.98 900.28 -240.73 899.53 C-257.71 882.51 -274.69 865.49 -291.67 848.47 C-292.4 847.74 -293.13 847.01 -293.89 846.25 C-299.77 840.35 -305.66 834.44 -311.55 828.54 C-335.8 804.22 -360.07 779.91 -384.34 755.61 C-387.77 752.19 -391.19 748.76 -394.62 745.33 C-395.29 744.65 -395.96 743.98 -396.66 743.28 C-407.53 732.41 -418.38 721.51 -429.24 710.62 C-440.13 699.68 -451.04 688.75 -461.96 677.83 C-468.46 671.34 -474.94 664.84 -481.41 658.32 C-485.73 653.98 -490.06 649.65 -494.4 645.32 C-496.88 642.85 -499.35 640.38 -501.8 637.9 C-504.45 635.23 -507.11 632.58 -509.77 629.93 C-510.54 629.15 -511.31 628.36 -512.1 627.55 C-512.81 626.85 -513.52 626.16 -514.25 625.44 C-515.17 624.53 -515.17 624.53 -516.09 623.6 C-517.98 622.2 -517.98 622.2 -520.5 622.55 C-523.3 623.54 -524.67 624.61 -526.76 626.7 C-527.47 627.41 -528.19 628.11 -528.92 628.84 C-529.69 629.62 -530.47 630.41 -531.26 631.21 C-532.09 632.04 -532.93 632.87 -533.78 633.73 C-536.1 636.04 -538.41 638.36 -540.72 640.68 C-543.22 643.21 -545.74 645.72 -548.26 648.23 C-552.67 652.64 -557.08 657.06 -561.48 661.48 C-568.02 668.06 -574.58 674.62 -581.14 681.18 C-592.17 692.22 -603.2 703.27 -614.22 714.32 C-629.26 729.42 -644.33 744.5 -659.39 759.58 C-666.41 766.6 -673.42 773.62 -680.44 780.64 C-681.14 781.35 -681.84 782.05 -682.56 782.78 C-699.29 799.52 -716 816.27 -732.72 833.02 C-733.81 834.12 -733.81 834.12 -734.93 835.24 C-741.6 841.92 -748.27 848.6 -754.94 855.29 C-771.26 871.64 -787.57 887.99 -803.89 904.34 C-804.62 905.07 -805.35 905.8 -806.11 906.56 C-822.79 923.27 -839.47 939.98 -856.15 956.68 C-857.21 957.74 -857.21 957.74 -858.28 958.81 C-865.28 965.82 -872.28 972.83 -879.28 979.84 C-894.33 994.9 -909.37 1009.97 -924.4 1025.04 C-935.36 1036.03 -946.33 1047.02 -957.3 1058 C-963.82 1064.53 -970.33 1071.06 -976.84 1077.59 C-981.19 1081.96 -985.54 1086.32 -989.9 1090.67 C-992.38 1093.15 -994.87 1095.64 -997.34 1098.13 C-1000.01 1100.81 -1002.68 1103.49 -1005.36 1106.16 C-1006.13 1106.93 -1006.89 1107.71 -1007.68 1108.5 C-1015.34 1116.1 -1023.93 1122.41 -1035.05 1122.77 C-1036.8 1122.76 -1038.56 1122.73 -1040.31 1122.69 C-1041.65 1122.68 -1041.65 1122.68 -1043.02 1122.67 C-1049.53 1122.59 -1049.53 1122.59 -1053 1121.44 C-1053 1120.78 -1053 1120.12 -1053 1119.44 C-1053.72 1119.5 -1054.44 1119.56 -1055.19 1119.62 C-1058.56 1119.4 -1060.31 1118.44 -1063 1116.44 C-1063 1115.78 -1063 1115.12 -1063 1114.44 C-1063.99 1114.44 -1064.98 1114.44 -1066 1114.44 C-1066 1113.78 -1066 1113.12 -1066 1112.44 C-1066.64 1112.17 -1067.28 1111.9 -1067.94 1111.62 C-1070 1110.44 -1070 1110.44 -1071 1107.44 C-1071.66 1107.44 -1072.32 1107.44 -1073 1107.44 C-1073 1106.45 -1073 1105.46 -1073 1104.44 C-1073.99 1104.11 -1074.98 1103.78 -1076 1103.44 C-1081.68 1094.12 -1082.74 1082.09 -1081 1071.44 C-1080.34 1070.45 -1079.68 1069.46 -1079 1068.44 C-1078.22 1066.11 -1077.55 1063.76 -1076.88 1061.4 C-1076.59 1060.75 -1076.3 1060.1 -1076 1059.44 C-1075.01 1059.11 -1074.02 1058.78 -1073 1058.44 C-1073 1057.45 -1073 1056.46 -1073 1055.44 C-1072.34 1055.44 -1071.68 1055.44 -1071 1055.44 C-1070.74 1054.85 -1070.48 1054.27 -1070.21 1053.66 C-1068.92 1051.29 -1067.53 1049.73 -1065.62 1047.82 C-1064.92 1047.11 -1064.21 1046.4 -1063.49 1045.67 C-1062.71 1044.9 -1061.93 1044.13 -1061.13 1043.34 C-1060.3 1042.51 -1059.48 1041.68 -1058.63 1040.83 C-1056.32 1038.53 -1054.01 1036.23 -1051.7 1033.93 C-1049.19 1031.43 -1046.69 1028.93 -1044.18 1026.43 C-1039.79 1022.04 -1035.39 1017.65 -1030.99 1013.27 C-1024.45 1006.75 -1017.91 1000.23 -1011.37 993.7 C-1001.05 983.4 -990.73 973.11 -980.41 962.81 C-964.02 946.47 -947.65 930.13 -931.28 913.78 C-924.98 907.49 -918.68 901.2 -912.39 894.92 C-911.34 893.87 -911.34 893.87 -910.27 892.8 C-893.61 876.17 -876.96 859.54 -860.3 842.91 C-859.57 842.19 -858.84 841.46 -858.09 840.71 C-841.07 823.73 -824.06 806.74 -807.03 789.77 C-806.3 789.04 -805.57 788.3 -804.81 787.55 C-798.91 781.66 -793.01 775.78 -787.1 769.89 C-762.78 745.63 -738.47 721.37 -714.18 697.1 C-710.75 693.67 -707.32 690.25 -703.89 686.82 C-703.22 686.15 -702.54 685.47 -701.85 684.78 C-690.97 673.91 -680.08 663.05 -669.18 652.2 C-658.24 641.3 -647.31 630.4 -636.4 619.48 C-629.9 612.98 -623.4 606.5 -616.89 600.02 C-612.54 595.7 -608.21 591.38 -603.89 587.04 C-601.42 584.56 -598.94 582.09 -596.46 579.63 C-593.79 576.99 -591.14 574.33 -588.49 571.66 C-587.71 570.89 -586.92 570.13 -586.11 569.33 C-585.07 568.27 -585.07 568.27 -584 567.18 C-583.09 566.27 -583.09 566.27 -582.16 565.34 C-580.77 563.45 -580.77 563.45 -581.11 560.94 C-582.11 558.14 -583.16 556.78 -585.25 554.69 C-585.96 553.98 -586.66 553.27 -587.38 552.54 C-588.55 551.38 -588.55 551.38 -589.75 550.21 C-590.57 549.38 -591.4 548.55 -592.25 547.7 C-594.55 545.39 -596.86 543.09 -599.18 540.79 C-601.69 538.29 -604.19 535.79 -606.69 533.28 C-611.09 528.88 -615.48 524.5 -619.89 520.11 C-626.44 513.59 -632.97 507.07 -639.51 500.53 C-650.5 489.55 -661.51 478.57 -672.51 467.59 C-687.55 452.61 -702.57 437.61 -717.59 422.6 C-724.58 415.62 -731.57 408.63 -738.57 401.64 C-739.27 400.94 -739.97 400.24 -740.69 399.52 C-757.36 382.87 -774.04 366.22 -790.72 349.58 C-791.82 348.48 -791.82 348.48 -792.94 347.37 C-799.59 340.73 -806.25 334.08 -812.9 327.44 C-829.19 311.19 -845.47 294.94 -861.75 278.69 C-862.48 277.96 -863.21 277.23 -863.96 276.48 C-880.61 259.87 -897.25 243.26 -913.89 226.64 C-914.59 225.94 -915.28 225.25 -916.01 224.53 C-922.99 217.55 -929.97 210.58 -936.95 203.61 C-951.95 188.62 -966.95 173.64 -981.97 158.67 C-992.91 147.76 -1003.85 136.84 -1014.79 125.91 C-1021.29 119.42 -1027.79 112.93 -1034.3 106.45 C-1038.65 102.12 -1042.99 97.78 -1047.33 93.44 C-1049.8 90.97 -1052.27 88.5 -1054.76 86.03 C-1057.43 83.38 -1060.09 80.71 -1062.75 78.04 C-1063.91 76.9 -1063.91 76.9 -1065.09 75.74 C-1076.43 64.31 -1078.8 54.19 -1079.05 38.4 C-1078.65 28.52 -1073.59 20.37 -1067 13.22 C-1063.38 9.99 -1059.27 7.68 -1055 5.44 C-1054.39 5.07 -1053.77 4.7 -1053.14 4.32 C-1044.71 0.85 -1030.99 1.4 -1022.45 4.3 C-1012.05 8.99 -1004.17 18.11 -996.24 26.09 C-995.41 26.92 -994.59 27.74 -993.74 28.59 C-991.47 30.87 -989.2 33.14 -986.93 35.42 C-984.46 37.9 -981.98 40.38 -979.5 42.87 C-975.17 47.21 -970.83 51.55 -966.5 55.9 C-960.06 62.36 -953.62 68.81 -947.17 75.27 C-938.97 83.49 -930.77 91.71 -922.57 99.93 C-921.92 100.58 -921.27 101.23 -920.6 101.9 C-919.95 102.56 -919.29 103.21 -918.62 103.88 C-901.82 120.73 -885 137.57 -868.19 154.41 C-865.44 157.16 -862.69 159.91 -859.94 162.66 C-855.08 167.54 -850.21 172.41 -845.35 177.28 C-829.62 193.03 -813.89 208.78 -798.16 224.53 C-797.08 225.61 -797.08 225.61 -795.98 226.71 C-772.65 250.08 -749.33 273.45 -726.01 296.83 C-702.03 320.87 -678.04 344.9 -654.05 368.91 C-650.66 372.3 -647.27 375.69 -643.89 379.08 C-642.89 380.08 -642.89 380.08 -641.87 381.1 C-631.13 391.85 -620.4 402.61 -609.68 413.37 C-598.91 424.17 -588.14 434.97 -577.35 445.75 C-570.94 452.16 -564.53 458.58 -558.14 465.01 C-553.87 469.3 -549.6 473.58 -545.31 477.85 C-542.87 480.28 -540.43 482.72 -538 485.18 C-535.39 487.81 -532.76 490.43 -530.13 493.04 C-529.37 493.82 -528.61 494.59 -527.83 495.39 C-527.13 496.08 -526.43 496.77 -525.71 497.48 C-524.81 498.38 -524.81 498.38 -523.89 499.3 C-522 500.68 -522 500.68 -519.45 500.27 C-515.8 499.03 -513.53 496.51 -510.9 493.82 C-510.3 493.23 -509.7 492.64 -509.09 492.03 C-507.09 490.04 -505.11 488.04 -503.13 486.03 C-501.7 484.6 -500.27 483.18 -498.84 481.75 C-494.95 477.87 -491.08 473.98 -487.21 470.08 C-483.16 466.01 -479.09 461.95 -475.03 457.88 C-468.2 451.05 -461.39 444.21 -454.57 437.37 C-445.84 428.59 -437.09 419.83 -428.34 411.07 C-420.81 403.53 -413.29 395.99 -405.77 388.45 C-404.15 386.83 -402.54 385.21 -400.93 383.6 C-396.32 378.98 -391.72 374.37 -387.12 369.75 C-385.73 368.35 -384.34 366.95 -382.94 365.56 C-381.04 363.64 -379.13 361.73 -377.23 359.82 C-376.68 359.27 -376.14 358.72 -375.57 358.16 C-372.32 354.88 -369.27 351.49 -366.3 347.94 C-364.66 346.04 -362.87 344.42 -360.94 342.81 C-357.81 340.15 -354.87 337.39 -352 334.44 C-187 169.44 -187 169.44 -94.31 76.81 C-91.89 74.47 -91.89 74.47 -90 71.44 C-89.34 71.44 -88.68 71.44 -88 71.44 C-87.67 70.45 -87.34 69.46 -87 68.44 C-86.34 68.44 -85.68 68.44 -85 68.44 C-85 67.78 -85 67.12 -85 66.44 C-82.62 63.81 -82.62 63.81 -80 61.44 C-79.34 61.44 -78.68 61.44 -78 61.44 C-77.67 60.45 -77.34 59.46 -77 58.44 C-76.34 58.44 -75.68 58.44 -75 58.44 C-75 57.78 -75 57.12 -75 56.44 C-72.62 53.81 -72.62 53.81 -70 51.44 C-69.34 51.44 -68.68 51.44 -68 51.44 C-67.67 50.45 -67.34 49.46 -67 48.44 C-66.34 48.44 -65.68 48.44 -65 48.44 C-65 47.78 -65 47.12 -65 46.44 C-62.62 43.81 -62.62 43.81 -60 41.44 C-59.34 41.44 -58.68 41.44 -58 41.44 C-57.67 40.45 -57.34 39.46 -57 38.44 C-56.34 38.44 -55.68 38.44 -55 38.44 C-55 37.78 -55 37.12 -55 36.44 C-54.34 36.44 -53.68 36.44 -53 36.44 C-52.67 35.45 -52.34 34.46 -52 33.44 C-51.34 33.44 -50.68 33.44 -50 33.44 C-50 32.78 -50 32.12 -50 31.44 C-49.34 31.44 -48.68 31.44 -48 31.44 C-47.67 30.45 -47.34 29.46 -47 28.44 C-46.34 28.44 -45.68 28.44 -45 28.44 C-45 27.78 -45 27.12 -45 26.44 C-44.34 26.44 -43.68 26.44 -43 26.44 C-42.67 25.45 -42.34 24.46 -42 23.44 C-41.34 23.44 -40.68 23.44 -40 23.44 C-40 22.78 -40 22.12 -40 21.44 C-39.34 21.44 -38.68 21.44 -38 21.44 C-37.67 20.45 -37.34 19.46 -37 18.44 C-36.34 18.44 -35.68 18.44 -35 18.44 C-35 17.78 -35 17.12 -35 16.44 C-34.34 16.44 -33.68 16.44 -33 16.44 C-32.67 15.45 -32.34 14.46 -32 13.44 C-31.34 13.44 -30.68 13.44 -30 13.44 C-30 12.78 -30 12.12 -30 11.44 C-27.87 9.6 -27.87 9.6 -25 7.5 C-24.07 6.81 -23.14 6.12 -22.19 5.41 C-14.86 0.87 -8.57 -0.06 0 0 Z " fill="#f85f6b" transform="translate(1160,78.5625)"/>
</svg>
