<?xml version="1.0" encoding="UTF-8"?>
<!-- Generator: visioncortex VTracer 0.6.3 -->
<svg version="1.1" xmlns="http://www.w3.org/2000/svg" width="1280" height="1280">
<path d="M0 0 C0.85 -0 1.69 -0.01 2.57 -0.01 C5.34 -0.02 8.12 -0.01 10.89 -0.01 C12.83 -0.01 14.78 -0.01 16.72 -0.01 C20.78 -0.02 24.84 -0.01 28.9 -0 C34.09 0.01 39.29 0 44.48 -0.01 C48.48 -0.02 52.49 -0.01 56.5 -0.01 C58.41 -0.01 60.33 -0.01 62.24 -0.01 C64.92 -0.02 67.6 -0.01 70.28 0 C71.06 -0 71.84 -0.01 72.65 -0.01 C77.79 0.03 82.18 0.88 87.14 2.26 C89.81 2.59 89.81 2.59 92.26 2.64 C93.57 2.69 93.57 2.69 94.9 2.74 C95.79 2.77 96.67 2.79 97.58 2.82 C99.37 2.88 101.16 2.94 102.95 3.01 C104.12 3.05 104.12 3.05 105.32 3.09 C107.14 3.26 107.14 3.26 108.14 4.26 C111.37 4.55 114.6 4.71 117.84 4.88 C121.02 5.24 123.21 6.07 126.14 7.26 C128.22 7.51 130.3 7.7 132.39 7.82 C138.04 8.16 138.04 8.16 139.14 9.26 C141.62 9.54 144.11 9.71 146.6 9.88 C149.2 10.27 150.82 11.08 153.14 12.26 C155.46 12.67 155.46 12.67 157.83 12.82 C162.04 13.16 162.04 13.16 163.14 14.26 C164.8 14.63 166.47 14.95 168.14 15.26 C173.03 16.15 173.03 16.15 174.14 17.26 C175.3 17.38 176.45 17.51 177.64 17.63 C182.41 18.18 186.64 19.64 191.14 21.26 C196.76 23.21 202.35 24.89 208.14 26.26 C208.14 26.92 208.14 27.58 208.14 28.26 C210.45 28.26 212.76 28.26 215.14 28.26 C215.14 28.92 215.14 29.58 215.14 30.26 C216.09 30.24 217.04 30.22 218.02 30.2 C221.14 30.26 221.14 30.26 223.14 31.26 C223.14 31.92 223.14 32.58 223.14 33.26 C223.97 33.18 224.79 33.09 225.64 33.01 C229.54 33.29 231.58 34.36 234.94 36.18 C237.31 37.34 239.6 38.05 242.14 38.76 C246.12 39.88 249.62 41.33 253.25 43.29 C255.5 44.44 257.8 45.34 260.14 46.26 C263.84 47.87 267.49 49.56 271.14 51.26 C272.3 51.79 272.3 51.79 273.48 52.34 C285.64 57.99 297.44 63.9 308.87 70.94 C311 72.18 312.73 72.81 315.14 73.26 C315.14 73.92 315.14 74.58 315.14 75.26 C316.01 75.44 316.01 75.44 316.89 75.63 C319.16 76.27 321.07 77.15 323.14 78.26 C323.14 78.92 323.14 79.58 323.14 80.26 C325.62 80.75 325.62 80.75 328.14 81.26 C328.14 81.92 328.14 82.58 328.14 83.26 C329.01 83.44 329.01 83.44 329.89 83.63 C332.16 84.27 334.07 85.15 336.14 86.26 C336.14 86.92 336.14 87.58 336.14 88.26 C336.68 88.35 337.22 88.45 337.78 88.54 C340.84 89.47 343.2 90.98 345.89 92.7 C347.37 93.62 347.37 93.62 348.88 94.57 C350 95.4 350 95.4 351.14 96.26 C351.14 96.92 351.14 97.58 351.14 98.26 C352.04 98.44 352.04 98.44 352.95 98.63 C355.14 99.26 355.14 99.26 358.14 101.26 C358.14 101.92 358.14 102.58 358.14 103.26 C358.68 103.34 359.21 103.42 359.77 103.51 C363.01 104.53 365.43 106.22 368.14 108.26 C368.14 108.92 368.14 109.58 368.14 110.26 C369.04 110.44 369.04 110.44 369.95 110.63 C372.14 111.26 372.14 111.26 375.14 113.26 C375.14 113.92 375.14 114.58 375.14 115.26 C375.7 115.53 376.26 115.8 376.84 116.07 C379.3 117.34 381.58 118.75 383.89 120.26 C384.69 120.77 385.49 121.29 386.31 121.82 C386.92 122.3 387.52 122.77 388.14 123.26 C388.14 123.92 388.14 124.58 388.14 125.26 C389.13 125.59 390.12 125.92 391.14 126.26 C391.14 126.92 391.14 127.58 391.14 128.26 C391.88 128.53 392.63 128.8 393.39 129.07 C396.03 130.21 398 131.35 400.14 133.26 C400.14 133.92 400.14 134.58 400.14 135.26 C401.13 135.59 402.12 135.92 403.14 136.26 C403.14 136.92 403.14 137.58 403.14 138.26 C404.01 138.66 404.01 138.66 404.89 139.07 C407.2 140.29 409.16 141.56 411.14 143.26 C411.14 143.92 411.14 144.58 411.14 145.26 C411.98 145.63 411.98 145.63 412.83 146.01 C415.56 147.49 417.82 149.19 420.14 151.26 C420.14 151.92 420.14 152.58 420.14 153.26 C420.71 153.5 421.27 153.74 421.86 153.99 C424.59 155.51 426.47 157.33 428.69 159.54 C429.95 160.8 429.95 160.8 431.25 162.09 C432.12 162.97 432.99 163.85 433.89 164.76 C435.22 166.08 435.22 166.08 436.58 167.43 C437.42 168.27 438.26 169.11 439.12 169.98 C439.9 170.75 440.67 171.52 441.46 172.32 C443.14 174.26 443.14 174.26 443.14 176.26 C443.8 176.26 444.46 176.26 445.14 176.26 C446.65 177.72 446.65 177.72 448.27 179.63 C448.8 180.26 449.34 180.89 449.9 181.53 C451.14 183.26 451.14 183.26 451.14 185.26 C451.8 185.26 452.46 185.26 453.14 185.26 C458.14 190.73 458.14 190.73 458.14 193.26 C459.13 193.59 460.12 193.92 461.14 194.26 C461.14 194.92 461.14 195.58 461.14 196.26 C461.8 196.26 462.46 196.26 463.14 196.26 C464.43 197.72 464.43 197.72 465.77 199.63 C466.43 200.57 466.43 200.57 467.12 201.53 C468.14 203.26 468.14 203.26 468.14 205.26 C469.13 205.59 470.12 205.92 471.14 206.26 C471.14 206.92 471.14 207.58 471.14 208.26 C471.8 208.26 472.46 208.26 473.14 208.26 C474.59 209.99 475.95 211.8 477.27 213.63 C477.99 214.63 478.71 215.63 479.46 216.66 C481.14 219.26 481.14 219.26 481.14 221.26 C481.8 221.26 482.46 221.26 483.14 221.26 C486.14 225.64 486.14 225.64 486.14 228.26 C486.8 228.26 487.46 228.26 488.14 228.26 C489.43 229.68 489.43 229.68 490.77 231.57 C491.21 232.19 491.66 232.8 492.12 233.43 C493.14 235.26 493.14 235.26 493.14 238.26 C494.13 238.59 495.12 238.92 496.14 239.26 C498.14 242.26 498.14 242.26 498.14 245.26 C499.13 245.59 500.12 245.92 501.14 246.26 C502.71 248.4 502.71 248.4 504.27 251.07 C504.78 251.94 505.3 252.82 505.84 253.72 C506.98 255.95 507.67 257.81 508.14 260.26 C508.8 260.26 509.46 260.26 510.14 260.26 C512.18 263.16 513.14 264.66 513.14 268.26 C513.8 268.26 514.46 268.26 515.14 268.26 C515.47 269.91 515.8 271.56 516.14 273.26 C516.8 273.26 517.46 273.26 518.14 273.26 C520.18 276.16 521.14 277.66 521.14 281.26 C521.8 281.26 522.46 281.26 523.14 281.26 C523.55 282.36 523.55 282.36 523.98 283.49 C525.05 286.05 526.27 288.18 527.77 290.51 C530.98 295.75 533.53 301.21 536.1 306.79 C538.21 311.36 540.46 315.79 542.89 320.2 C545.39 324.74 547.47 329.27 549.3 334.11 C550.19 336.48 550.19 336.48 551.77 339.51 C553.2 342.37 554.13 345.23 555.14 348.26 C555.64 349.25 556.13 350.24 556.64 351.26 C558.12 354.22 559.11 357.11 560.14 360.26 C560.68 361.41 561.21 362.57 561.77 363.76 C563.14 367.25 563.41 369.56 563.14 373.26 C563.8 373.26 564.46 373.26 565.14 373.26 C566.5 375.97 566.21 378.27 566.14 381.26 C566.8 381.26 567.46 381.26 568.14 381.26 C568.14 383.57 568.14 385.88 568.14 388.26 C568.8 388.26 569.46 388.26 570.14 388.26 C571.86 393.21 573.4 398.13 574.61 403.23 C575.19 405.45 575.93 407.59 576.7 409.76 C577.73 412.72 578.38 415.45 578.7 418.57 C579.1 421.92 579.66 423.39 581.14 426.26 C581.5 428.59 581.83 430.92 582.14 433.26 C582.47 433.59 582.8 433.92 583.14 434.26 C583.42 436.48 583.59 438.7 583.76 440.93 C584.02 443.27 584.02 443.27 585.14 445.23 C586.35 447.69 586.51 449.72 586.7 452.45 C586.69 455.66 586.69 455.66 588.14 458.26 C588.43 461.23 588.59 464.2 588.76 467.18 C589 470.22 589 470.22 590.14 472.73 C591.38 475.85 591.52 478.6 591.7 481.95 C591.82 486.26 591.82 486.26 593.14 490.26 C593.28 491.77 593.37 493.28 593.42 494.79 C593.48 496.13 593.48 496.13 593.54 497.5 C593.61 499.38 593.68 501.27 593.75 503.16 C593.8 504.49 593.8 504.49 593.86 505.86 C593.89 506.68 593.92 507.5 593.95 508.34 C593.94 510.27 593.94 510.27 595.14 511.26 C596.09 516.48 596.29 521.53 596.29 526.81 C596.29 528.04 596.29 528.04 596.3 529.31 C596.31 532.02 596.31 534.73 596.31 537.44 C596.31 539.34 596.32 541.23 596.32 543.13 C596.32 547.1 596.33 551.07 596.33 555.04 C596.33 560.1 596.34 565.17 596.36 570.24 C596.37 574.16 596.37 578.07 596.37 581.99 C596.37 583.86 596.37 585.73 596.38 587.59 C596.39 590.21 596.39 592.83 596.38 595.45 C596.39 596.21 596.39 596.98 596.4 597.76 C596.37 602.48 595.74 606.75 594.6 611.33 C594.05 613.64 593.84 615.86 593.76 618.22 C593.73 619.04 593.69 619.86 593.66 620.71 C593.62 621.94 593.62 621.94 593.58 623.2 C593.52 624.87 593.45 626.55 593.39 628.22 C593.36 628.95 593.34 629.68 593.31 630.43 C593.14 632.26 593.14 632.26 592.14 634.26 C591.86 637.5 591.69 640.75 591.52 644 C591.15 647.15 590.32 649.34 589.14 652.26 C588.89 654.33 588.7 656.42 588.58 658.51 C588.24 664.16 588.24 664.16 587.14 665.26 C586.86 667.74 586.69 670.22 586.52 672.72 C586.13 675.32 585.32 676.94 584.14 679.26 C583.73 681.58 583.73 681.58 583.58 683.95 C583.24 688.16 583.24 688.16 582.14 689.26 C581.77 690.92 581.44 692.59 581.14 694.26 C580.25 699.15 580.25 699.15 579.14 700.26 C578.48 703.37 577.9 706.49 577.33 709.62 C576.66 713.17 575.81 716.08 574.14 719.26 C573.32 722.32 572.62 725.39 571.92 728.48 C571.14 731.26 571.14 731.26 569.14 734.26 C568.59 736.25 568.09 738.25 567.64 740.26 C566.82 743.91 566.24 746.12 564.14 749.26 C563.39 751.47 562.68 753.7 562.02 755.95 C561.66 757.13 561.31 758.31 560.95 759.52 C560.68 760.42 560.41 761.33 560.14 762.26 C559.48 762.26 558.82 762.26 558.14 762.26 C558.22 763.08 558.31 763.91 558.39 764.76 C558.11 768.64 557.09 770.72 555.27 774.07 C554.1 776.34 553.18 778.62 552.27 781.01 C550.31 786.05 547.91 790.8 545.41 795.59 C544.33 797.86 543.62 799.82 543.14 802.26 C542.48 802.26 541.82 802.26 541.14 802.26 C541.05 802.92 540.96 803.59 540.86 804.27 C539.93 808.14 538.31 811.5 536.58 815.07 C536.08 816.11 536.08 816.11 535.58 817.17 C534.77 818.87 533.96 820.56 533.14 822.26 C532.48 822.26 531.82 822.26 531.14 822.26 C530.96 823.37 530.96 823.37 530.78 824.5 C530.15 827.2 529.34 829.06 527.95 831.45 C527.51 832.22 527.07 832.99 526.61 833.78 C524.56 837.23 522.48 840.67 520.38 844.09 C519.01 846.32 519.01 846.32 518.14 849.26 C517.48 849.26 516.82 849.26 516.14 849.26 C516.02 849.84 515.89 850.41 515.77 851.01 C515.13 853.28 514.25 855.18 513.14 857.26 C512.48 857.26 511.82 857.26 511.14 857.26 C511.04 857.81 510.94 858.37 510.84 858.94 C509.98 861.79 508.64 863.89 507.02 866.38 C506.39 867.34 505.77 868.3 505.12 869.29 C502.65 872.99 500.11 876.64 497.52 880.26 C496.11 882.2 496.11 882.2 495.14 884.26 C494.48 884.26 493.82 884.26 493.14 884.26 C493.14 885.25 493.14 886.24 493.14 887.26 C492.48 887.26 491.82 887.26 491.14 887.26 C490.83 888.04 490.52 888.83 490.2 889.63 C489.14 892.26 489.14 892.26 488.14 894.26 C487.48 894.26 486.82 894.26 486.14 894.26 C485.83 895.04 485.52 895.83 485.2 896.63 C484.14 899.26 484.14 899.26 483.14 901.26 C482.48 901.26 481.82 901.26 481.14 901.26 C480.83 901.88 480.52 902.5 480.2 903.13 C479.52 904.51 478.83 905.88 478.14 907.26 C477.48 907.26 476.82 907.26 476.14 907.26 C475.81 908.58 475.48 909.9 475.14 911.26 C474.48 911.26 473.82 911.26 473.14 911.26 C472.83 911.88 472.52 912.5 472.2 913.13 C471.52 914.51 470.83 915.88 470.14 917.26 C469.48 917.26 468.82 917.26 468.14 917.26 C467.93 917.94 467.73 918.62 467.52 919.32 C465.71 923.18 463.24 926.34 460.14 929.26 C459.48 929.26 458.82 929.26 458.14 929.26 C457.91 929.8 457.69 930.33 457.45 930.88 C455.12 935.11 451.82 939.11 448.14 942.26 C447.48 942.26 446.82 942.26 446.14 942.26 C445.89 942.82 445.65 943.37 445.39 943.95 C443.91 946.68 442.21 948.94 440.14 951.26 C439.48 951.26 438.82 951.26 438.14 951.26 C437.81 952.25 437.48 953.24 437.14 954.26 C436.48 954.26 435.82 954.26 435.14 954.26 C435.14 954.92 435.14 955.58 435.14 956.26 C434.48 956.26 433.82 956.26 433.14 956.26 C432.81 957.25 432.48 958.24 432.14 959.26 C431.48 959.26 430.82 959.26 430.14 959.26 C430.14 959.92 430.14 960.58 430.14 961.26 C429.48 961.26 428.82 961.26 428.14 961.26 C427.81 962.25 427.48 963.24 427.14 964.26 C426.48 964.26 425.82 964.26 425.14 964.26 C425.14 964.92 425.14 965.58 425.14 966.26 C423.53 967.84 423.53 967.84 421.39 969.63 C419.07 971.6 416.89 973.52 414.77 975.7 C413.14 977.26 413.14 977.26 411.14 977.26 C411.14 977.92 411.14 978.58 411.14 979.26 C405.66 984.26 405.66 984.26 403.14 984.26 C403.14 984.92 403.14 985.58 403.14 986.26 C400.93 988.18 398.71 989.98 396.39 991.76 C395.44 992.51 395.44 992.51 394.47 993.27 C391.45 995.62 388.61 997.62 385.14 999.26 C385.14 999.92 385.14 1000.58 385.14 1001.26 C383.82 1001.59 382.5 1001.92 381.14 1002.26 C381.14 1002.92 381.14 1003.58 381.14 1004.26 C377.68 1007.26 377.68 1007.26 375.14 1007.26 C375.14 1007.92 375.14 1008.58 375.14 1009.26 C370.76 1012.26 370.76 1012.26 368.14 1012.26 C368.14 1012.92 368.14 1013.58 368.14 1014.26 C363.76 1017.26 363.76 1017.26 361.14 1017.26 C361.14 1017.92 361.14 1018.58 361.14 1019.26 C360.15 1019.26 359.16 1019.26 358.14 1019.26 C358.14 1019.92 358.14 1020.58 358.14 1021.26 C356.46 1022.45 354.72 1023.57 352.95 1024.63 C349.12 1026.97 345.63 1029.43 342.14 1032.26 C338.7 1034.51 335.26 1036.6 331.14 1037.26 C331.14 1037.92 331.14 1038.58 331.14 1039.26 C330.46 1039.62 329.78 1039.99 329.09 1040.36 C324.38 1042.9 319.71 1045.48 315.14 1048.26 C311.53 1050.44 307.89 1052.57 304.2 1054.63 C303.31 1055.14 302.41 1055.64 301.49 1056.16 C299.14 1057.26 299.14 1057.26 296.14 1057.26 C296.14 1057.92 296.14 1058.58 296.14 1059.26 C295.63 1059.5 295.12 1059.74 294.59 1059.99 C292.19 1061.12 289.79 1062.25 287.39 1063.38 C286.52 1063.79 285.65 1064.2 284.76 1064.63 C280 1066.88 275.27 1069.18 270.58 1071.57 C266.26 1073.76 261.9 1075.65 257.38 1077.39 C254.26 1078.6 251.21 1079.93 248.14 1081.26 C245.81 1082.26 243.47 1083.26 241.14 1084.26 C240.07 1084.75 239 1085.25 237.89 1085.76 C233.92 1087.48 229.78 1088.48 225.59 1089.51 C222.92 1090.2 222.92 1090.2 220.14 1092.26 C217.1 1093.1 214.03 1093.78 210.95 1094.48 C207.97 1095.15 207.97 1095.15 205.14 1097.26 C201.86 1098.52 198.94 1099.29 195.45 1099.76 C192.01 1100.04 192.01 1100.04 189.14 1102.26 C186.81 1102.62 184.48 1102.96 182.14 1103.26 C181.81 1103.59 181.48 1103.92 181.14 1104.26 C179.15 1104.48 177.15 1104.71 175.15 1104.88 C172.83 1105.18 172.83 1105.18 170.14 1107.26 C165.66 1108.64 161.05 1109.31 156.39 1109.76 C152.95 1110.1 150.35 1110.93 147.14 1112.26 C140.77 1113.89 134.45 1114.57 127.9 1114.92 C125.13 1115.14 125.13 1115.14 122.7 1116.25 C119.56 1117.48 116.81 1117.64 113.45 1117.82 C109.14 1117.93 109.14 1117.93 105.14 1119.26 C103.74 1119.39 102.33 1119.46 100.92 1119.5 C100.07 1119.54 99.22 1119.57 98.34 1119.6 C96.57 1119.66 94.8 1119.72 93.03 1119.78 C91.74 1119.83 91.74 1119.83 90.42 1119.88 C89.26 1119.92 89.26 1119.92 88.08 1119.96 C85.57 1120.21 83.36 1120.68 80.91 1121.27 C73.2 1122.85 65.33 1122.55 57.49 1122.52 C55.78 1122.53 54.07 1122.53 52.36 1122.53 C48.8 1122.53 45.23 1122.53 41.67 1122.52 C37.12 1122.51 32.58 1122.51 28.04 1122.53 C24.51 1122.53 20.99 1122.53 17.47 1122.53 C15.79 1122.53 14.12 1122.53 12.44 1122.53 C4.32 1122.55 -3.58 1122.51 -11.55 1120.72 C-15.8 1119.87 -20.11 1119.83 -24.42 1119.7 C-26.17 1119.64 -27.92 1119.57 -29.68 1119.5 C-30.43 1119.48 -31.19 1119.46 -31.97 1119.43 C-33.86 1119.26 -33.86 1119.26 -35.86 1118.26 C-39.07 1117.98 -42.28 1117.81 -45.5 1117.64 C-48.88 1117.26 -51.65 1116.35 -54.86 1115.26 C-56.77 1115.01 -58.69 1114.82 -60.61 1114.7 C-65.66 1114.36 -65.66 1114.36 -67.86 1113.26 C-70.35 1112.98 -72.85 1112.81 -75.35 1112.64 C-77.93 1112.25 -79.55 1111.43 -81.86 1110.26 C-84.18 1109.85 -84.18 1109.85 -86.55 1109.7 C-90.76 1109.36 -90.76 1109.36 -91.86 1108.26 C-93.52 1107.89 -95.19 1107.56 -96.86 1107.26 C-101.75 1106.37 -101.75 1106.37 -102.86 1105.26 C-103.99 1105.16 -105.13 1105.05 -106.3 1104.95 C-109.67 1104.57 -112.37 1103.74 -115.48 1102.38 C-120.8 1100.1 -126.18 1099.03 -131.86 1097.97 C-134.86 1097.26 -134.86 1097.26 -137.86 1095.26 C-140.1 1094.57 -142.35 1093.93 -144.61 1093.32 C-149.6 1091.94 -154.18 1090.45 -158.86 1088.26 C-162.77 1086.49 -166.61 1085 -170.73 1083.82 C-178.41 1081.58 -185.4 1078.05 -192.5 1074.41 C-194.92 1073.23 -197.36 1072.25 -199.86 1071.26 C-202.63 1070.02 -205.38 1068.75 -208.14 1067.48 C-210.69 1066.33 -213.26 1065.28 -215.86 1064.26 C-215.86 1063.6 -215.86 1062.94 -215.86 1062.26 C-216.6 1062.14 -217.33 1062.01 -218.09 1061.89 C-220.77 1061.28 -222.76 1060.46 -225.19 1059.18 C-225.98 1058.77 -226.78 1058.35 -227.6 1057.92 C-228.43 1057.47 -229.26 1057.03 -230.11 1056.57 C-231.39 1055.89 -231.39 1055.89 -232.7 1055.2 C-237.6 1052.57 -242.3 1049.81 -246.84 1046.61 C-249.19 1045.04 -251.62 1043.72 -254.11 1042.38 C-258.49 1040.03 -262.79 1037.58 -267.05 1035.01 C-268.15 1034.34 -269.26 1033.68 -270.4 1032.99 C-271.21 1032.42 -272.02 1031.85 -272.86 1031.26 C-272.86 1030.6 -272.86 1029.94 -272.86 1029.26 C-273.44 1029.14 -274.03 1029.03 -274.63 1028.91 C-277 1028.22 -278.48 1027.33 -280.48 1025.89 C-281.5 1025.16 -281.5 1025.16 -282.55 1024.41 C-283.27 1023.89 -283.99 1023.36 -284.73 1022.82 C-286.25 1021.73 -287.77 1020.64 -289.29 1019.55 C-290.43 1018.73 -290.43 1018.73 -291.59 1017.89 C-293.75 1016.34 -295.91 1014.82 -298.09 1013.31 C-298.74 1012.86 -299.39 1012.4 -300.05 1011.94 C-301.28 1011.08 -302.51 1010.23 -303.74 1009.38 C-305.15 1008.39 -306.51 1007.33 -307.86 1006.26 C-307.86 1005.6 -307.86 1004.94 -307.86 1004.26 C-308.57 1004.01 -309.29 1003.76 -310.03 1003.51 C-313.17 1002.12 -315.5 1000.41 -318.17 998.26 C-319.05 997.56 -319.94 996.86 -320.85 996.13 C-321.84 995.21 -321.84 995.21 -322.86 994.26 C-322.86 993.6 -322.86 992.94 -322.86 992.26 C-323.43 991.99 -324 991.72 -324.59 991.45 C-326.94 990.22 -328.98 988.83 -331.11 987.26 C-331.82 986.74 -332.52 986.23 -333.25 985.7 C-334.05 984.98 -334.05 984.98 -334.86 984.26 C-334.86 983.6 -334.86 982.94 -334.86 982.26 C-335.85 981.93 -336.84 981.6 -337.86 981.26 C-337.86 980.6 -337.86 979.94 -337.86 979.26 C-338.44 978.99 -339.01 978.72 -339.61 978.45 C-341.91 977.23 -343.88 975.96 -345.86 974.26 C-345.86 973.6 -345.86 972.94 -345.86 972.26 C-346.52 972.26 -347.18 972.26 -347.86 972.26 C-349.48 970.88 -349.48 970.88 -350.86 969.26 C-350.86 968.6 -350.86 967.94 -350.86 967.26 C-351.44 967 -352.02 966.75 -352.62 966.49 C-355.09 965.13 -356.76 963.62 -358.75 961.63 C-359.46 960.93 -360.17 960.22 -360.9 959.49 C-361.63 958.76 -362.36 958.02 -363.11 957.26 C-363.85 956.52 -364.6 955.78 -365.37 955.02 C-366.07 954.32 -366.77 953.61 -367.5 952.88 C-368.14 952.24 -368.79 951.59 -369.45 950.92 C-370.86 949.26 -370.86 949.26 -370.86 947.26 C-371.52 947.26 -372.18 947.26 -372.86 947.26 C-374.48 945.88 -374.48 945.88 -375.86 944.26 C-375.86 943.6 -375.86 942.94 -375.86 942.26 C-376.52 942.26 -377.18 942.26 -377.86 942.26 C-382.86 936.78 -382.86 936.78 -382.86 934.26 C-383.85 933.93 -384.84 933.6 -385.86 933.26 C-385.86 932.6 -385.86 931.94 -385.86 931.26 C-386.52 931.26 -387.18 931.26 -387.86 931.26 C-389.55 929.4 -389.55 929.4 -391.42 926.95 C-392.04 926.15 -392.66 925.35 -393.3 924.52 C-394.86 922.26 -394.86 922.26 -395.86 919.26 C-396.52 919.26 -397.18 919.26 -397.86 919.26 C-399.65 917.17 -401.33 915.08 -402.98 912.88 C-403.69 911.98 -403.69 911.98 -404.4 911.06 C-407.86 906.52 -407.86 906.52 -407.86 904.26 C-408.52 904.26 -409.18 904.26 -409.86 904.26 C-411.12 902.83 -411.12 902.83 -412.55 900.81 C-413.08 900.07 -413.61 899.33 -414.15 898.57 C-414.72 897.76 -415.28 896.96 -415.86 896.13 C-417.03 894.48 -418.2 892.83 -419.37 891.18 C-419.96 890.36 -420.54 889.53 -421.14 888.68 C-422.72 886.45 -424.32 884.25 -425.94 882.05 C-426.64 881.1 -426.64 881.1 -427.35 880.13 C-428.21 878.95 -429.09 877.77 -429.96 876.59 C-432.86 872.6 -432.86 872.6 -432.86 869.26 C-433.52 869.26 -434.18 869.26 -434.86 869.26 C-436.01 867.71 -436.01 867.71 -437.29 865.52 C-437.77 864.71 -438.25 863.9 -438.74 863.06 C-439.26 862.18 -439.77 861.29 -440.3 860.38 C-441.38 858.54 -442.47 856.69 -443.56 854.84 C-444.38 853.44 -444.38 853.44 -445.23 852 C-447.18 848.71 -449.2 845.47 -451.23 842.22 C-455.28 835.72 -459.1 829.16 -462.55 822.32 C-462.89 821.65 -463.23 820.98 -463.58 820.29 C-464.99 817.42 -465.86 815.5 -465.86 812.26 C-466.52 812.26 -467.18 812.26 -467.86 812.26 C-470.39 807.38 -472.82 802.52 -474.8 797.38 C-476.7 792.45 -479.05 787.8 -481.49 783.12 C-482.88 780.21 -483.88 777.32 -484.86 774.26 C-485.6 772.53 -485.6 772.53 -486.36 770.76 C-487.86 767.26 -487.86 767.26 -488.86 764.2 C-489.8 761.2 -489.8 761.2 -491.36 758.32 C-492.98 755.01 -493.88 751.81 -494.86 748.26 C-495.35 746.92 -495.85 745.59 -496.36 744.26 C-497.75 740.64 -498.8 736.98 -499.86 733.26 C-500.37 731.92 -500.89 730.59 -501.42 729.26 C-502.83 725.63 -503.33 722.12 -503.86 718.26 C-504.85 716.77 -504.85 716.77 -505.86 715.26 C-506.22 712.93 -506.56 710.6 -506.86 708.26 C-507.19 707.93 -507.52 707.6 -507.86 707.26 C-508 706.17 -508.15 705.07 -508.3 703.95 C-508.63 700.45 -508.63 700.45 -509.86 698.32 C-510.93 696.12 -511.15 694.49 -511.42 692.07 C-511.43 688.48 -511.43 688.48 -512.86 687.26 C-513.23 685.62 -513.56 683.97 -513.86 682.32 C-514.51 678.67 -514.51 678.67 -515.86 675.26 C-516.17 672.41 -516.37 669.55 -516.58 666.69 C-516.6 664.31 -516.6 664.31 -517.86 663.26 C-518.15 660.55 -518.31 657.84 -518.48 655.12 C-518.73 652.27 -518.73 652.27 -519.86 649.85 C-521.13 646.55 -521.25 643.6 -521.42 640.07 C-521.5 635.5 -521.5 635.5 -522.86 631.26 C-522.99 629.83 -523.06 628.4 -523.11 626.97 C-523.14 626.11 -523.17 625.25 -523.21 624.36 C-523.27 622.57 -523.32 620.77 -523.38 618.97 C-523.41 618.11 -523.45 617.24 -523.48 616.34 C-523.51 615.56 -523.53 614.78 -523.56 613.97 C-523.81 611.07 -523.81 611.07 -524.86 607.63 C-525.98 603.23 -526.14 599.09 -526.12 594.57 C-526.12 593.74 -526.13 592.91 -526.13 592.06 C-526.14 589.34 -526.13 586.63 -526.12 583.91 C-526.13 582.01 -526.13 580.11 -526.13 578.21 C-526.13 574.24 -526.13 570.27 -526.12 566.3 C-526.11 561.22 -526.12 556.14 -526.13 551.06 C-526.13 547.14 -526.13 543.22 -526.13 539.3 C-526.13 537.43 -526.13 535.55 -526.13 533.68 C-526.14 531.06 -526.13 528.44 -526.12 525.82 C-526.12 525.05 -526.13 524.29 -526.13 523.5 C-526.09 518.76 -525.32 514.81 -523.86 510.26 C-523.52 507.7 -523.52 507.7 -523.48 505.27 C-523.45 504.4 -523.41 503.53 -523.38 502.63 C-523.35 501.75 -523.32 500.86 -523.3 499.95 C-523.24 498.16 -523.17 496.37 -523.11 494.58 C-523.08 493.8 -523.06 493.02 -523.03 492.21 C-522.86 490.26 -522.86 490.26 -521.86 488.26 C-521.58 485.02 -521.41 481.77 -521.24 478.52 C-520.87 475.37 -520.04 473.17 -518.86 470.26 C-518.6 468.2 -518.42 466.14 -518.3 464.07 C-517.96 458.46 -517.96 458.46 -516.86 456.26 C-516.59 454.02 -516.41 451.79 -516.24 449.55 C-515.86 447.26 -515.86 447.26 -514.86 445.26 C-513.71 442.95 -513.5 441.13 -513.3 438.57 C-512.96 434.36 -512.96 434.36 -511.86 433.26 C-511.49 431.6 -511.16 429.93 -510.86 428.26 C-509.97 423.37 -509.97 423.37 -508.86 422.26 C-508.74 421.1 -508.61 419.95 -508.48 418.76 C-507.94 413.99 -506.48 409.76 -504.86 405.26 C-502.91 399.64 -501.23 394.05 -499.86 388.26 C-499.2 388.26 -498.54 388.26 -497.86 388.26 C-497.92 387.27 -497.98 386.28 -498.05 385.26 C-498.07 380.79 -496.58 377.35 -494.86 373.26 C-494.2 373.26 -493.54 373.26 -492.86 373.26 C-492.94 372.43 -493.02 371.61 -493.11 370.76 C-492.83 366.86 -491.76 364.82 -489.93 361.46 C-488.78 359.09 -488.06 356.8 -487.36 354.26 C-486.24 350.28 -484.79 346.78 -482.82 343.15 C-481.68 340.9 -480.78 338.6 -479.86 336.26 C-476.69 328.98 -473.25 321.81 -469.86 314.63 C-469.44 313.75 -469.03 312.87 -468.6 311.96 C-465.9 306.26 -462.99 300.73 -459.86 295.26 C-459.36 294.38 -458.86 293.5 -458.35 292.59 C-457.96 291.9 -457.57 291.22 -457.17 290.51 C-455.49 287.49 -454.02 284.52 -452.86 281.26 C-452.2 281.26 -451.54 281.26 -450.86 281.26 C-449.78 278.61 -448.76 275.98 -447.86 273.26 C-447.2 273.26 -446.54 273.26 -445.86 273.26 C-445.53 271.61 -445.2 269.96 -444.86 268.26 C-444.2 268.26 -443.54 268.26 -442.86 268.26 C-442.76 267.71 -442.66 267.16 -442.56 266.59 C-441.69 263.68 -440.28 261.54 -438.61 259.01 C-436.36 255.56 -434.16 252.11 -432.05 248.57 C-431.32 247.48 -430.6 246.39 -429.86 245.26 C-429.2 245.26 -428.54 245.26 -427.86 245.26 C-427.74 244.66 -427.61 244.06 -427.48 243.45 C-426.86 241.26 -426.86 241.26 -424.86 238.26 C-424.2 238.26 -423.54 238.26 -422.86 238.26 C-422.78 237.72 -422.69 237.19 -422.61 236.63 C-421.58 233.39 -419.89 230.97 -417.86 228.26 C-417.2 228.26 -416.54 228.26 -415.86 228.26 C-415.4 227.08 -415.4 227.08 -414.92 225.88 C-413.86 223.26 -413.86 223.26 -412.86 221.26 C-412.2 221.26 -411.54 221.26 -410.86 221.26 C-410.59 220.7 -410.32 220.13 -410.05 219.56 C-408.78 217.1 -407.37 214.82 -405.86 212.51 C-405.09 211.31 -405.09 211.31 -404.3 210.09 C-403.82 209.48 -403.35 208.88 -402.86 208.26 C-402.2 208.26 -401.54 208.26 -400.86 208.26 C-400.53 207.27 -400.2 206.28 -399.86 205.26 C-399.2 205.26 -398.54 205.26 -397.86 205.26 C-397.59 204.52 -397.32 203.77 -397.05 203.01 C-395.91 200.37 -394.77 198.4 -392.86 196.26 C-392.2 196.26 -391.54 196.26 -390.86 196.26 C-390.53 195.27 -390.2 194.28 -389.86 193.26 C-389.2 193.26 -388.54 193.26 -387.86 193.26 C-387.59 192.68 -387.32 192.1 -387.05 191.51 C-385.83 189.2 -384.56 187.24 -382.86 185.26 C-382.2 185.26 -381.54 185.26 -380.86 185.26 C-380.61 184.7 -380.36 184.15 -380.11 183.57 C-378.63 180.83 -376.92 178.58 -374.86 176.26 C-374.2 176.26 -373.54 176.26 -372.86 176.26 C-372.5 175.41 -372.5 175.41 -372.13 174.54 C-370.61 171.81 -368.79 169.93 -366.58 167.71 C-365.74 166.87 -364.89 166.02 -364.03 165.15 C-363.15 164.28 -362.27 163.41 -361.36 162.51 C-360.48 161.62 -359.6 160.73 -358.69 159.82 C-357.85 158.98 -357.01 158.14 -356.14 157.27 C-355.37 156.5 -354.6 155.73 -353.8 154.94 C-351.86 153.26 -351.86 153.26 -349.86 153.26 C-349.86 152.6 -349.86 151.94 -349.86 151.26 C-348.4 149.75 -348.4 149.75 -346.48 148.13 C-345.86 147.59 -345.23 147.06 -344.59 146.5 C-342.86 145.26 -342.86 145.26 -340.86 145.26 C-340.86 144.6 -340.86 143.94 -340.86 143.26 C-335.38 138.26 -335.38 138.26 -332.86 138.26 C-332.53 137.27 -332.2 136.28 -331.86 135.26 C-331.2 135.26 -330.54 135.26 -329.86 135.26 C-329.86 134.6 -329.86 133.94 -329.86 133.26 C-328.4 131.97 -328.4 131.97 -326.48 130.63 C-325.86 130.19 -325.23 129.74 -324.59 129.28 C-322.86 128.26 -322.86 128.26 -320.86 128.26 C-320.53 127.27 -320.2 126.28 -319.86 125.26 C-319.2 125.26 -318.54 125.26 -317.86 125.26 C-317.86 124.6 -317.86 123.94 -317.86 123.26 C-316.23 121.92 -314.52 120.66 -312.8 119.45 C-311.8 118.74 -310.8 118.03 -309.77 117.3 C-308.81 116.63 -307.85 115.95 -306.86 115.26 C-305.5 114.26 -304.15 113.26 -302.8 112.26 C-299.86 110.26 -299.86 110.26 -297.86 110.26 C-297.86 109.6 -297.86 108.94 -297.86 108.26 C-295.62 106.46 -293.39 104.78 -291.05 103.13 C-290.4 102.67 -289.76 102.2 -289.1 101.72 C-284.24 98.26 -284.24 98.26 -280.86 98.26 C-280.86 97.6 -280.86 96.94 -280.86 96.26 C-278.77 94.74 -278.77 94.74 -275.92 93.01 C-271.43 90.24 -267.05 87.36 -262.73 84.33 C-260.86 83.26 -260.86 83.26 -257.86 83.26 C-257.86 82.6 -257.86 81.94 -257.86 81.26 C-256.21 80.93 -254.56 80.6 -252.86 80.26 C-252.86 79.6 -252.86 78.94 -252.86 78.26 C-247.11 75.26 -247.11 75.26 -244.86 75.26 C-244.86 74.6 -244.86 73.94 -244.86 73.26 C-243.76 72.85 -243.76 72.85 -242.64 72.43 C-239.99 71.32 -237.73 70.04 -235.3 68.51 C-226.61 63.22 -217.39 59 -208.17 54.73 C-204.83 53.19 -201.51 51.61 -198.23 49.95 C-195.46 48.56 -192.74 47.39 -189.86 46.26 C-182.08 43.11 -182.08 43.11 -174.48 39.57 C-171.67 38.16 -168.85 37.24 -165.86 36.26 C-164.73 35.76 -163.59 35.27 -162.42 34.76 C-156.65 32.33 -151.07 31.02 -144.86 30.26 C-144.86 29.6 -144.86 28.94 -144.86 28.26 C-142.55 28.26 -140.24 28.26 -137.86 28.26 C-137.86 27.6 -137.86 26.94 -137.86 26.26 C-132.91 24.54 -127.99 23 -122.89 21.79 C-120.66 21.21 -118.53 20.47 -116.36 19.7 C-113.37 18.66 -110.63 18.02 -107.48 17.7 C-103.77 17.52 -103.77 17.52 -100.86 15.26 C-98.93 14.79 -98.93 14.79 -96.77 14.48 C-95.99 14.36 -95.2 14.24 -94.39 14.11 C-93.58 14 -92.76 13.88 -91.92 13.76 C-90.31 13.53 -88.69 13.29 -87.08 13.04 C-86.01 12.89 -86.01 12.89 -84.92 12.73 C-82.67 12.21 -80.91 11.31 -78.86 10.26 C-76.32 9.88 -76.32 9.88 -73.67 9.7 C-70.46 9.71 -70.46 9.71 -67.86 8.26 C-64.89 7.97 -61.92 7.81 -58.94 7.64 C-55.9 7.4 -55.9 7.4 -53.39 6.26 C-50.25 5.02 -47.47 4.88 -44.11 4.7 C-40.17 4.82 -40.17 4.82 -36.86 3.26 C-35.47 3.13 -34.07 3.06 -32.67 3.01 C-31.8 2.98 -30.94 2.95 -30.05 2.91 C-28.24 2.85 -26.43 2.8 -24.62 2.74 C-23.75 2.71 -22.88 2.67 -21.98 2.64 C-21.19 2.61 -20.4 2.59 -19.59 2.56 C-16.68 2.31 -16.68 2.31 -13.24 1.26 C-8.78 0.13 -4.58 -0.02 0 0 Z M-8.86 58.26 C-10.31 58.39 -11.76 58.46 -13.22 58.5 C-14.09 58.54 -14.96 58.57 -15.85 58.6 C-17.67 58.67 -19.5 58.72 -21.32 58.78 C-26.24 58.97 -30.19 59.56 -34.86 61.26 C-36.94 61.51 -39.02 61.7 -41.11 61.82 C-45.14 61.97 -45.14 61.97 -48.86 63.26 C-51.58 63.53 -54.3 63.7 -57.04 63.88 C-59.94 64.27 -62.16 65.14 -64.86 66.26 C-67.06 66.64 -67.06 66.64 -69.11 66.82 C-72.65 66.84 -72.65 66.84 -73.86 68.26 C-76.08 68.54 -78.3 68.71 -80.54 68.88 C-83 69.28 -84.66 70.12 -86.86 71.26 C-89.19 71.61 -91.52 71.95 -93.86 72.26 C-94.19 72.59 -94.52 72.92 -94.86 73.26 C-95.97 73.4 -97.09 73.55 -98.23 73.7 C-101.94 74.01 -101.94 74.01 -104.86 76.26 C-106.44 76.48 -106.44 76.48 -108.05 76.7 C-112.33 77.33 -115.87 78.65 -119.86 80.26 C-124.81 82.18 -129.73 83.86 -134.86 85.26 C-136.17 85.63 -137.48 86.01 -138.8 86.38 C-140.31 86.82 -140.31 86.82 -141.86 87.26 C-141.86 87.92 -141.86 88.58 -141.86 89.26 C-142.52 89.18 -143.18 89.09 -143.86 89.01 C-147.39 89.3 -149.47 90.46 -152.55 92.11 C-155.14 93.4 -157.76 94.36 -160.48 95.32 C-164.45 96.72 -168.12 98.31 -171.86 100.26 C-174.63 101.51 -177.4 102.75 -180.18 103.98 C-182.85 105.25 -185.32 106.73 -187.86 108.26 C-190.17 108.95 -190.17 108.95 -191.86 109.26 C-191.86 109.92 -191.86 110.58 -191.86 111.26 C-196.81 112.74 -196.81 112.74 -201.86 114.26 C-201.86 114.92 -201.86 115.58 -201.86 116.26 C-203.51 116.59 -205.16 116.92 -206.86 117.26 C-206.86 117.92 -206.86 118.58 -206.86 119.26 C-207.6 119.37 -208.34 119.48 -209.1 119.59 C-212 120.29 -213.59 121.21 -215.98 122.95 C-219.35 125.29 -222.74 127.34 -226.36 129.26 C-230.77 131.61 -234.89 134.19 -238.98 137.06 C-240.86 138.26 -240.86 138.26 -243.86 139.26 C-243.86 139.92 -243.86 140.58 -243.86 141.26 C-244.38 141.51 -244.89 141.75 -245.42 142.01 C-248.63 143.65 -251.74 145.46 -254.86 147.26 C-254.86 147.92 -254.86 148.58 -254.86 149.26 C-255.64 149.57 -256.43 149.88 -257.23 150.2 C-259.78 151.19 -259.78 151.19 -261.86 152.26 C-261.86 152.92 -261.86 153.58 -261.86 154.26 C-262.58 154.53 -263.3 154.8 -264.05 155.07 C-268.17 156.81 -271.97 158.76 -274.86 162.26 C-274.86 162.92 -274.86 163.58 -274.86 164.26 C-275.64 164.57 -276.43 164.88 -277.23 165.2 C-279.78 166.19 -279.78 166.19 -281.86 167.26 C-281.86 167.92 -281.86 168.58 -281.86 169.26 C-282.43 169.53 -283 169.8 -283.59 170.07 C-285.94 171.3 -287.98 172.68 -290.11 174.26 C-290.82 174.77 -291.52 175.29 -292.25 175.82 C-292.78 176.3 -293.31 176.77 -293.86 177.26 C-293.86 177.92 -293.86 178.58 -293.86 179.26 C-294.44 179.53 -295.02 179.8 -295.62 180.07 C-297.89 181.27 -299.67 182.6 -301.61 184.26 C-302.53 185.03 -302.53 185.03 -303.47 185.82 C-305.09 187.17 -305.09 187.17 -304.86 189.26 C-305.52 189.26 -306.18 189.26 -306.86 189.26 C-306.86 189.92 -306.86 190.58 -306.86 191.26 C-307.85 191.59 -308.84 191.92 -309.86 192.26 C-309.86 192.92 -309.86 193.58 -309.86 194.26 C-310.72 194.63 -310.72 194.63 -311.59 195 C-314.24 196.47 -316.04 198.19 -318.19 200.32 C-318.99 201.12 -319.79 201.91 -320.61 202.74 C-321.43 203.57 -322.26 204.4 -323.11 205.26 C-323.95 206.09 -324.79 206.92 -325.66 207.78 C-326.45 208.58 -327.24 209.38 -328.06 210.2 C-329.16 211.29 -329.16 211.29 -330.27 212.41 C-332.08 214.11 -332.08 214.11 -331.86 216.26 C-332.85 216.59 -333.84 216.92 -334.86 217.26 C-334.86 217.92 -334.86 218.58 -334.86 219.26 C-335.52 219.26 -336.18 219.26 -336.86 219.26 C-336.86 219.92 -336.86 220.58 -336.86 221.26 C-337.52 221.26 -338.18 221.26 -338.86 221.26 C-340.64 222.94 -340.64 222.94 -342.42 225.07 C-343.35 226.13 -343.35 226.13 -344.3 227.22 C-346.04 229.27 -346.04 229.27 -346.86 232.26 C-347.52 232.26 -348.18 232.26 -348.86 232.26 C-349.19 233.58 -349.52 234.9 -349.86 236.26 C-350.52 236.26 -351.18 236.26 -351.86 236.26 C-355.5 239.74 -355.5 239.74 -356.86 244.26 C-357.52 244.26 -358.18 244.26 -358.86 244.26 C-361.18 247.48 -361.18 247.48 -361.86 251.26 C-362.52 251.26 -363.18 251.26 -363.86 251.26 C-367.35 255.08 -370.31 259.29 -371.86 264.26 C-372.52 264.26 -373.18 264.26 -373.86 264.26 C-376.18 267.48 -376.18 267.48 -376.86 271.26 C-377.52 271.26 -378.18 271.26 -378.86 271.26 C-380.45 273.2 -380.45 273.2 -381.98 275.63 C-382.52 276.45 -383.06 277.26 -383.62 278.09 C-385.03 280.13 -385.03 280.13 -384.86 282.26 C-385.52 282.26 -386.18 282.26 -386.86 282.26 C-387.22 282.95 -387.59 283.64 -387.96 284.35 C-390.85 289.74 -393.88 294.88 -397.34 299.92 C-399.65 303.48 -401.6 307.22 -403.56 310.97 C-404.86 313.26 -404.86 313.26 -406.86 315.26 C-406.86 316.58 -406.86 317.9 -406.86 319.26 C-407.52 319.26 -408.18 319.26 -408.86 319.26 C-409.19 320.91 -409.52 322.56 -409.86 324.26 C-410.52 324.26 -411.18 324.26 -411.86 324.26 C-413.34 329.21 -413.34 329.21 -414.86 334.26 C-415.52 334.26 -416.18 334.26 -416.86 334.26 C-417.05 334.81 -417.25 335.37 -417.45 335.94 C-417.71 336.66 -417.97 337.39 -418.23 338.13 C-418.62 339.21 -418.62 339.21 -419.01 340.31 C-419.86 342.26 -419.86 342.26 -421.86 344.26 C-422.51 345.69 -423.11 347.16 -423.67 348.63 C-425.56 353.5 -427.54 358.33 -429.56 363.15 C-430.46 365.31 -431.36 367.48 -432.25 369.65 C-432.7 370.74 -433.15 371.83 -433.61 372.95 C-434.02 373.94 -434.42 374.93 -434.84 375.96 C-435.86 378.26 -435.86 378.26 -436.86 379.26 C-436.9 380.92 -436.9 382.59 -436.86 384.26 C-437.52 384.26 -438.18 384.26 -438.86 384.26 C-439.26 385.74 -439.26 385.74 -439.67 387.26 C-440.45 389.98 -441.34 392.62 -442.36 395.26 C-443.32 397.76 -444.12 400.17 -444.86 402.76 C-445.59 405.32 -446.38 407.67 -447.36 410.13 C-448.8 413.85 -449.67 417.57 -450.43 421.47 C-450.86 423.26 -450.86 423.26 -451.86 424.26 C-452.02 425.41 -452.19 426.57 -452.36 427.76 C-452.86 431.26 -452.86 431.26 -453.86 432.26 C-454.34 434.35 -454.81 436.44 -455.26 438.54 C-455.9 441.42 -456.62 444.27 -457.36 447.13 C-458.62 452.09 -459.6 457.04 -460.43 462.08 C-460.86 464.26 -460.86 464.26 -461.86 466.26 C-462.06 468.09 -462.22 469.92 -462.36 471.76 C-462.75 477.04 -462.75 477.04 -463.86 479.26 C-464.23 481.93 -464.56 484.58 -464.86 487.26 C-465.72 494.99 -465.72 494.99 -466.86 497.26 C-467 498.67 -467.08 500.09 -467.14 501.5 C-467.18 502.34 -467.22 503.18 -467.25 504.04 C-467.29 504.92 -467.32 505.79 -467.36 506.7 C-467.43 508.42 -467.5 510.15 -467.58 511.88 C-467.61 512.65 -467.64 513.41 -467.67 514.21 C-467.86 516.26 -467.86 516.26 -468.86 519.26 C-469.03 522.09 -469.14 524.9 -469.21 527.74 C-469.25 529.03 -469.25 529.03 -469.28 530.35 C-469.36 533.19 -469.42 536.04 -469.48 538.88 C-469.51 539.85 -469.53 540.82 -469.55 541.82 C-469.88 556.66 -469.86 571.48 -469.48 586.32 C-469.46 587.21 -469.44 588.1 -469.42 589.02 C-469.36 591.53 -469.29 594.04 -469.21 596.54 C-469.19 597.29 -469.17 598.03 -469.15 598.79 C-469.05 601.85 -468.84 604.33 -467.86 607.26 C-467.74 608.66 -467.66 610.06 -467.61 611.46 C-467.58 612.28 -467.55 613.09 -467.51 613.93 C-467.45 615.63 -467.4 617.34 -467.34 619.04 C-467.13 624.09 -466.36 628.39 -464.86 633.26 C-464.62 635.19 -464.42 637.13 -464.3 639.07 C-464.1 642.81 -464.1 642.81 -462.86 646.26 C-462.58 648.98 -462.41 651.7 -462.24 654.43 C-461.99 657.23 -461.99 657.23 -460.92 659.55 C-459.14 664.1 -458.71 668.93 -458 673.75 C-457.88 674.53 -457.76 675.31 -457.64 676.11 C-457.54 676.81 -457.44 677.51 -457.33 678.23 C-456.81 680.47 -455.88 682.21 -454.86 684.26 C-454.5 686.59 -454.17 688.92 -453.86 691.26 C-453.53 691.59 -453.2 691.92 -452.86 692.26 C-452.76 693.23 -452.65 694.2 -452.55 695.2 C-452.02 699.31 -450.53 702.84 -448.89 706.63 C-447.65 709.79 -446.76 712.98 -445.86 716.26 C-445.2 718.68 -444.53 721.09 -443.86 723.51 C-443.36 725.31 -443.36 725.31 -442.86 727.15 C-441.98 730.38 -441.98 730.38 -439.86 733.26 C-439.33 734.81 -438.86 736.37 -438.42 737.95 C-437.11 742.49 -435.57 746.86 -433.86 751.26 C-433.2 751.26 -432.54 751.26 -431.86 751.26 C-431.92 751.94 -431.98 752.62 -432.05 753.32 C-431.8 757.18 -430.5 759.77 -428.86 763.26 C-428.2 763.26 -427.54 763.26 -426.86 763.26 C-426.86 764.91 -426.86 766.56 -426.86 768.26 C-426.2 768.26 -425.54 768.26 -424.86 768.26 C-424.75 768.78 -424.64 769.31 -424.52 769.85 C-422.36 778.33 -418.12 785.61 -413.95 793.23 C-412.45 796.02 -411.06 798.85 -409.67 801.7 C-407.39 806.32 -404.87 810.72 -402.16 815.1 C-400.95 817.11 -399.88 819.15 -398.86 821.26 C-398.2 821.26 -397.54 821.26 -396.86 821.26 C-396.86 822.58 -396.86 823.9 -396.86 825.26 C-396.2 825.26 -395.54 825.26 -394.86 825.26 C-394.47 826.33 -394.47 826.33 -394.07 827.42 C-392.8 830.4 -391.26 832.93 -389.48 835.63 C-387.44 838.78 -385.46 841.9 -383.67 845.2 C-381.98 848.06 -380.23 849.97 -377.86 852.26 C-377.36 853.74 -377.36 853.74 -376.86 855.26 C-376.2 855.26 -375.54 855.26 -374.86 855.26 C-374.46 856.1 -374.46 856.1 -374.05 856.96 C-372.78 859.41 -371.37 861.7 -369.86 864.01 C-369.09 865.21 -369.09 865.21 -368.3 866.43 C-367.82 867.03 -367.35 867.64 -366.86 868.26 C-366.2 868.26 -365.54 868.26 -364.86 868.26 C-364.67 868.92 -364.49 869.58 -364.3 870.26 C-362.6 873.79 -360.41 876.19 -357.79 879.08 C-355.84 881.28 -354.03 883.55 -352.23 885.88 C-348.17 891.18 -348.17 891.18 -343.86 896.26 C-343.2 896.26 -342.54 896.26 -341.86 896.26 C-341.46 897.13 -341.46 897.13 -341.05 898.02 C-339.84 900.29 -338.52 902.06 -336.86 904.01 C-336.34 904.62 -335.83 905.24 -335.3 905.87 C-333.95 907.49 -333.95 907.49 -331.86 907.26 C-331.61 907.83 -331.37 908.4 -331.11 908.99 C-329.65 911.64 -327.93 913.43 -325.79 915.56 C-324.97 916.37 -324.16 917.19 -323.32 918.02 C-322.47 918.86 -321.61 919.7 -320.73 920.57 C-319.9 921.4 -319.07 922.23 -318.22 923.08 C-310.01 932.11 -310.01 932.11 -299.86 938.26 C-299.86 938.92 -299.86 939.58 -299.86 940.26 C-295.18 945.09 -289.52 949.63 -283.86 953.26 C-283.2 953.26 -282.54 953.26 -281.86 953.26 C-281.86 953.92 -281.86 954.58 -281.86 955.26 C-280.25 956.66 -278.57 957.98 -276.86 959.26 C-275.55 960.26 -274.25 961.27 -272.94 962.27 C-271.52 963.35 -270.1 964.43 -268.67 965.51 C-267.95 966.06 -267.22 966.62 -266.48 967.19 C-265.79 967.71 -265.09 968.24 -264.38 968.77 C-263.75 969.25 -263.12 969.73 -262.48 970.22 C-260.9 971.44 -260.9 971.44 -258.86 971.26 C-258.86 971.92 -258.86 972.58 -258.86 973.26 C-257.41 973.94 -257.41 973.94 -255.92 974.63 C-252.86 976.26 -252.86 976.26 -251.86 978.26 C-250.28 979.18 -248.7 980.1 -247.09 980.98 C-243.47 983.06 -240 985.38 -236.51 987.67 C-234.01 989.17 -231.59 990.26 -228.86 991.26 C-228.86 991.92 -228.86 992.58 -228.86 993.26 C-227.54 993.26 -226.22 993.26 -224.86 993.26 C-224.86 993.92 -224.86 994.58 -224.86 995.26 C-223.75 995.8 -222.63 996.33 -221.48 996.88 C-217.23 998.99 -213.25 1001.44 -209.25 1003.99 C-206.76 1005.31 -204.64 1005.85 -201.86 1006.26 C-201.86 1006.92 -201.86 1007.58 -201.86 1008.26 C-198.88 1009.68 -195.9 1011.09 -192.92 1012.51 C-192.09 1012.9 -191.26 1013.3 -190.4 1013.71 C-186.24 1015.69 -182.06 1017.65 -177.86 1019.56 C-176.77 1020.05 -176.77 1020.05 -175.67 1020.55 C-173.87 1021.38 -173.87 1021.38 -171.86 1021.26 C-171.86 1021.92 -171.86 1022.58 -171.86 1023.26 C-170.21 1023.26 -168.56 1023.26 -166.86 1023.26 C-166.86 1023.92 -166.86 1024.58 -166.86 1025.26 C-161.13 1027.97 -161.13 1027.97 -154.86 1028.26 C-154.86 1028.92 -154.86 1029.58 -154.86 1030.26 C-153.83 1030.53 -152.8 1030.8 -151.73 1031.07 C-148.2 1032.07 -145.14 1033.62 -141.86 1035.26 C-139.53 1035.95 -137.2 1036.61 -134.86 1037.26 C-130.92 1038.65 -127.04 1040.18 -123.17 1041.76 C-118.48 1043.54 -113.62 1044.5 -108.71 1045.51 C-105.86 1046.26 -105.86 1046.26 -102.86 1048.26 C-100.53 1048.62 -98.2 1048.96 -95.86 1049.26 C-95.53 1049.59 -95.2 1049.92 -94.86 1050.26 C-93.2 1050.63 -91.53 1050.95 -89.86 1051.26 C-84.97 1052.15 -84.97 1052.15 -83.86 1053.26 C-82.36 1053.47 -80.86 1053.63 -79.36 1053.76 C-74.97 1054.15 -74.97 1054.15 -73.86 1055.26 C-72.05 1055.63 -70.24 1055.96 -68.42 1056.26 C-63.07 1057.15 -63.07 1057.15 -60.86 1058.26 C-59.03 1058.46 -57.2 1058.62 -55.36 1058.76 C-50.08 1059.15 -50.08 1059.15 -47.86 1060.26 C-45.36 1060.63 -42.87 1060.96 -40.36 1061.26 C-33.13 1062.12 -33.13 1062.12 -30.86 1063.26 C-29.45 1063.4 -28.03 1063.48 -26.61 1063.54 C-25.36 1063.6 -25.36 1063.6 -24.08 1063.65 C-22.76 1063.71 -22.76 1063.71 -21.42 1063.76 C-19.69 1063.83 -17.97 1063.9 -16.24 1063.98 C-15.47 1064.01 -14.7 1064.04 -13.91 1064.07 C-11.86 1064.26 -11.86 1064.26 -8.86 1065.26 C-6.71 1065.41 -4.56 1065.51 -2.41 1065.58 C-1.1 1065.62 0.21 1065.66 1.56 1065.7 C2.98 1065.74 4.41 1065.78 5.83 1065.82 C6.55 1065.84 7.27 1065.86 8.02 1065.88 C26.85 1066.42 45.62 1066.36 64.45 1065.82 C65.52 1065.79 65.52 1065.79 66.61 1065.76 C68.64 1065.7 70.67 1065.64 72.69 1065.58 C74.45 1065.52 74.45 1065.52 76.24 1065.46 C79.21 1065.37 79.21 1065.37 82.14 1064.26 C85.85 1064.03 89.56 1063.87 93.27 1063.74 C98.2 1063.52 102.4 1062.7 107.14 1061.26 C109.07 1061.02 111.01 1060.82 112.95 1060.7 C116.69 1060.5 116.69 1060.5 120.14 1059.26 C122.86 1058.98 125.59 1058.81 128.32 1058.64 C131.22 1058.25 133.44 1057.38 136.14 1056.26 C138.34 1055.88 138.34 1055.88 140.39 1055.7 C143.93 1055.68 143.93 1055.68 145.14 1054.26 C147.36 1053.97 149.58 1053.81 151.82 1053.64 C154.28 1053.24 155.94 1052.4 158.14 1051.26 C159.19 1051.11 160.24 1050.97 161.33 1050.82 C165.85 1050.15 169.85 1048.78 174.14 1047.26 C178.31 1045.84 182.46 1044.45 186.7 1043.26 C189.87 1042.34 192.89 1041.26 195.95 1040.04 C197.76 1039.39 199.6 1038.84 201.45 1038.32 C205.1 1037.27 208.64 1036.05 212.2 1034.76 C216.5 1033.2 220.8 1031.69 225.14 1030.26 C225.14 1029.6 225.14 1028.94 225.14 1028.26 C226.16 1028.35 226.16 1028.35 227.2 1028.45 C231.06 1028.2 233.65 1026.9 237.14 1025.26 C237.14 1024.6 237.14 1023.94 237.14 1023.26 C238.79 1023.26 240.44 1023.26 242.14 1023.26 C242.14 1022.6 242.14 1021.94 242.14 1021.26 C243.1 1021.02 244.07 1020.77 245.06 1020.52 C249.76 1019.18 254.06 1017.12 258.45 1015.01 C259.3 1014.61 260.14 1014.2 261.01 1013.79 C266.11 1011.32 271.01 1008.69 275.8 1005.67 C279.54 1003.42 283.46 1001.55 287.38 999.65 C290.06 998.3 292.65 996.94 295.14 995.26 C295.14 994.6 295.14 993.94 295.14 993.26 C295.71 993.14 296.29 993.01 296.88 992.89 C299.24 992.23 301.21 991.32 303.39 990.2 C304.1 989.83 304.8 989.47 305.53 989.1 C306.06 988.82 306.59 988.54 307.14 988.26 C307.14 987.6 307.14 986.94 307.14 986.26 C307.82 986.03 308.5 985.81 309.2 985.57 C312.33 984.17 314.78 982.45 317.49 980.38 C319.14 979.26 319.14 979.26 322.14 978.26 C322.8 977.6 323.46 976.94 324.14 976.26 C326.14 974.26 326.14 974.26 329.14 973.26 C329.14 972.6 329.14 971.94 329.14 971.26 C329.7 970.99 330.26 970.72 330.84 970.45 C333.3 969.18 335.58 967.77 337.89 966.26 C339.09 965.49 339.09 965.49 340.31 964.7 C340.92 964.22 341.52 963.75 342.14 963.26 C342.14 962.6 342.14 961.94 342.14 961.26 C342.8 961.07 343.46 960.89 344.14 960.7 C347.67 959 350.08 956.81 352.96 954.19 C355.16 952.24 357.43 950.43 359.77 948.63 C365.06 944.57 365.06 944.57 370.14 940.26 C370.14 939.6 370.14 938.94 370.14 938.26 C370.8 938.26 371.46 938.26 372.14 938.26 C372.14 937.6 372.14 936.94 372.14 936.26 C372.68 936.04 373.22 935.81 373.78 935.58 C376.9 933.83 379.36 931.51 381.95 929.07 C382.79 928.29 382.79 928.29 383.64 927.49 C388.19 923.22 392.65 918.85 397.08 914.45 C397.69 913.84 398.31 913.23 398.94 912.6 C406.3 906.27 406.3 906.27 410.14 898.26 C410.8 898.26 411.46 898.26 412.14 898.26 C412.14 897.6 412.14 896.94 412.14 896.26 C412.8 896.26 413.46 896.26 414.14 896.26 C418.76 891.79 422.61 886.45 426.5 881.36 C427.94 879.52 429.42 877.76 430.95 876.01 C432.99 873.44 434.14 871.36 435.14 868.26 C435.8 868.26 436.46 868.26 437.14 868.26 C438.59 866.52 439.95 864.72 441.27 862.88 C441.99 861.89 442.71 860.89 443.46 859.86 C445.32 857.49 445.32 857.49 445.14 855.26 C445.8 855.26 446.46 855.26 447.14 855.26 C447.82 853.8 447.82 853.8 448.52 852.32 C450.14 849.26 450.14 849.26 452.14 848.26 C453.07 846.68 453.99 845.09 454.87 843.49 C458.14 837.74 461.78 832.17 465.58 826.76 C467.41 824.33 467.41 824.33 467.14 821.26 C467.8 821.26 468.46 821.26 469.14 821.26 C469.52 820.49 469.89 819.71 470.28 818.92 C470.79 817.87 471.3 816.83 471.83 815.76 C472.33 814.74 472.83 813.72 473.34 812.67 C475.05 809.43 476.92 806.39 478.87 803.31 C480.9 800.03 482.72 796.66 484.52 793.26 C484.9 792.53 485.29 791.8 485.68 791.05 C489.56 783.61 492.91 775.99 496.14 768.26 C496.59 767.19 497.04 766.12 497.51 765.01 C499.2 760.98 500.86 756.93 502.52 752.89 C502.97 751.79 503.43 750.7 503.89 749.57 C504.5 748.08 504.5 748.08 505.12 746.56 C506.14 744.26 506.14 744.26 507.14 743.26 C507.18 741.59 507.18 739.92 507.14 738.26 C507.8 738.26 508.46 738.26 509.14 738.26 C509.41 737.27 509.68 736.28 509.95 735.26 C510.73 732.53 511.62 729.9 512.64 727.26 C513.6 724.76 514.4 722.35 515.14 719.76 C515.88 717.18 516.67 714.8 517.64 712.32 C519.46 707.57 520.6 702.75 521.67 697.79 C521.93 696.57 521.93 696.57 522.2 695.32 C522.36 694.57 522.52 693.82 522.68 693.04 C523.14 691.26 523.14 691.26 524.14 690.26 C524.51 688.77 524.84 687.26 525.14 685.76 C526.03 681.37 526.03 681.37 527.14 680.26 C527.33 678.4 527.33 678.4 527.52 676.51 C529.14 660.26 529.14 660.26 532.14 657.26 C532.35 655.26 532.51 653.26 532.64 651.26 C533.03 645.37 533.03 645.37 534.14 644.26 C534.43 641.03 534.59 637.8 534.76 634.56 C535.14 631.26 535.14 631.26 536.14 628.97 C537.69 624.77 537.57 620.52 537.7 616.07 C537.76 614.27 537.83 612.46 537.89 610.65 C537.92 609.86 537.94 609.06 537.97 608.24 C538.14 606.26 538.14 606.26 539.14 604.26 C539.24 601.55 539.28 598.87 539.27 596.17 C539.27 595.33 539.27 594.5 539.28 593.64 C539.28 590.86 539.28 588.09 539.27 585.32 C539.27 583.4 539.28 581.48 539.28 579.56 C539.28 575.53 539.28 571.5 539.27 567.47 C539.27 562.3 539.27 557.13 539.27 551.96 C539.28 547.99 539.28 544.03 539.27 540.06 C539.27 538.15 539.27 536.24 539.28 534.34 C539.28 531.67 539.28 529.01 539.27 526.35 C539.27 525.55 539.27 524.76 539.28 523.94 C539.35 519.97 539.35 519.97 538.14 516.26 C538.01 514.8 537.94 513.33 537.89 511.86 C537.86 510.99 537.83 510.12 537.79 509.22 C537.73 507.38 537.68 505.55 537.62 503.71 C537.44 499.06 537.02 495.56 535.14 491.26 C534.88 489.02 534.7 486.76 534.58 484.51 C534.71 480.57 534.71 480.57 533.14 477.26 C532.85 474.55 532.69 471.84 532.52 469.12 C532.13 466.19 531.26 463.98 530.14 461.26 C529.76 458.84 529.76 458.84 529.58 456.51 C529.54 453.59 529.54 453.59 528.14 451.26 C527.86 449 527.69 446.75 527.52 444.49 C527.25 441.98 527.25 441.98 525.14 439.26 C524.78 436.93 524.44 434.6 524.14 432.26 C523.81 431.93 523.48 431.6 523.14 431.26 C522.82 429.93 522.53 428.6 522.27 427.26 C521.4 423.18 520.22 419.32 518.86 415.38 C518.22 413.51 517.68 411.6 517.14 409.7 C516.4 407.14 515.59 404.74 514.64 402.26 C513.25 398.64 512.16 395 511.14 391.26 C510.77 389.95 510.39 388.63 510.02 387.32 C509.73 386.31 509.44 385.3 509.14 384.26 C508.48 384.26 507.82 384.26 507.14 384.26 C507.22 383.6 507.31 382.94 507.39 382.26 C507.1 378.73 505.94 376.65 504.29 373.57 C503 370.98 502.04 368.36 501.08 365.63 C499.68 361.66 498.09 358 496.14 354.26 C494.89 351.49 493.65 348.72 492.42 345.94 C491.14 343.27 489.68 340.79 488.14 338.26 C487.11 335.94 486.11 333.6 485.14 331.26 C484.58 329.95 484.02 328.63 483.45 327.32 C483.02 326.31 482.59 325.3 482.14 324.26 C481.48 324.26 480.82 324.26 480.14 324.26 C479.92 323.44 479.92 323.44 479.7 322.61 C478.1 317.23 475.9 313.08 472.68 308.5 C471.2 306.35 469.94 304.18 468.7 301.88 C466.32 297.49 463.68 293.3 460.97 289.1 C459.73 287.17 458.5 285.23 457.28 283.29 C456.68 282.33 456.07 281.37 455.45 280.38 C454.91 279.52 454.37 278.66 453.82 277.77 C452.14 275.18 452.14 275.18 450 272.63 C448.14 270.26 448.14 270.26 447.14 267.26 C446.31 266.45 446.31 266.45 445.45 265.63 C442.62 262.73 440.65 259.52 438.51 256.09 C438.06 255.48 437.61 254.88 437.14 254.26 C436.48 254.26 435.82 254.26 435.14 254.26 C434.89 253.72 434.65 253.19 434.39 252.63 C432.83 249.68 431.11 246.96 429.14 244.26 C428.48 244.26 427.82 244.26 427.14 244.26 C426.9 243.71 426.66 243.16 426.41 242.6 C424.84 239.7 422.88 237.36 420.77 234.82 C416.16 229.28 416.16 229.28 413.98 226.41 C413.37 225.7 412.76 224.99 412.14 224.26 C411.48 224.26 410.82 224.26 410.14 224.26 C409.81 223.27 409.48 222.28 409.14 221.26 C408.48 221.26 407.82 221.26 407.14 221.26 C406.89 220.7 406.65 220.15 406.39 219.57 C404.91 216.83 403.21 214.58 401.14 212.26 C400.48 212.26 399.82 212.26 399.14 212.26 C398.92 211.71 398.69 211.16 398.46 210.59 C394.36 203.35 383.12 191.92 375.14 189.26 C374.81 188.27 374.48 187.28 374.14 186.26 C373.48 186.26 372.82 186.26 372.14 186.26 C372.14 185.6 372.14 184.94 372.14 184.26 C370.51 182.78 368.81 181.38 367.08 180.01 C363.68 177.3 360.33 174.58 357.08 171.7 C354.52 169.05 354.52 169.05 352.14 169.26 C352.14 168.6 352.14 167.94 352.14 167.26 C350.43 165.67 350.43 165.67 348.27 164.13 C347.55 163.59 346.83 163.06 346.09 162.5 C344.24 161.08 344.24 161.08 342.14 161.26 C342.14 160.6 342.14 159.94 342.14 159.26 C340.21 157.86 338.22 156.54 336.2 155.26 C330.25 151.47 330.25 151.47 329.14 149.26 C327.49 148.32 325.84 147.38 324.17 146.46 C322.03 145.19 320.11 143.78 318.14 142.26 C315.2 140 312.23 138.09 308.97 136.31 C306.87 135.1 304.89 133.76 302.89 132.38 C298.71 129.56 294.37 127.15 289.92 124.78 C286.33 122.82 282.88 120.66 279.43 118.46 C276.99 117.18 274.85 116.67 272.14 116.26 C272.14 115.6 272.14 114.94 272.14 114.26 C271.25 113.91 270.37 113.56 269.45 113.2 C265.76 111.63 262.33 109.71 258.83 107.76 C253.39 104.78 248.16 102.69 242.14 101.26 C242.14 100.6 242.14 99.94 242.14 99.26 C241.51 99.09 240.88 98.92 240.23 98.74 C234.48 97.11 229.42 95.03 224.14 92.26 C220.11 90.28 216.73 88.84 212.14 89.26 C212.14 88.6 212.14 87.94 212.14 87.26 C210.66 86.86 210.66 86.86 209.14 86.45 C203.77 84.91 198.62 82.86 193.45 80.76 C188.79 78.99 183.96 78.03 179.09 77 C176.14 76.26 176.14 76.26 173.98 75.18 C171.1 73.74 168.3 74.14 165.14 74.26 C165.14 73.6 165.14 72.94 165.14 72.26 C164.43 72.13 163.72 71.99 162.99 71.86 C162.07 71.68 161.15 71.5 160.2 71.32 C158.83 71.06 158.83 71.06 157.43 70.79 C155.14 70.26 155.14 70.26 154.14 69.26 C152.65 69.05 151.14 68.89 149.64 68.76 C145.25 68.37 145.25 68.37 144.14 67.26 C142.15 66.89 140.15 66.56 138.14 66.26 C132.25 65.37 132.25 65.37 131.14 64.26 C129.14 64.05 127.14 63.89 125.14 63.76 C119.25 63.37 119.25 63.37 118.14 62.26 C114.91 61.97 111.68 61.81 108.44 61.64 C105.14 61.26 105.14 61.26 102.86 60.26 C98.65 58.71 94.4 58.83 89.95 58.7 C88.15 58.64 86.34 58.57 84.54 58.5 C83.74 58.48 82.94 58.46 82.12 58.43 C80.14 58.26 80.14 58.26 78.14 57.26 C75.47 57.16 72.82 57.12 70.14 57.13 C69.32 57.13 68.49 57.13 67.64 57.12 C64.9 57.12 62.16 57.12 59.42 57.13 C57.52 57.13 55.63 57.12 53.73 57.12 C49.75 57.12 45.77 57.12 41.78 57.13 C36.67 57.13 31.56 57.13 26.45 57.12 C22.53 57.12 18.61 57.12 14.69 57.12 C12.8 57.13 10.92 57.12 9.03 57.12 C6.4 57.12 3.77 57.12 1.14 57.13 C0.35 57.13 -0.43 57.13 -1.24 57.12 C-5.18 57.06 -5.18 57.06 -8.86 58.26 Z " fill="#b2b6fb" transform="translate(604.859375,78.7412109375)"/>
</svg>
